<svg width="267" height="60" viewBox="0 0 267 60" fill="none" xmlns="http://www.w3.org/2000/svg">
<path d="M264.705 29.7573C264.705 31.1535 264.078 32.6915 262.526 34.38C260.964 36.0793 258.564 37.8146 255.304 39.5299C248.79 42.9585 239.231 46.1067 227.251 48.7733C203.324 54.0994 170.172 57.4109 133.486 57.4109C96.8005 57.4109 63.6486 54.0994 39.7216 48.7733C27.7418 46.1067 18.1834 42.9585 11.6687 39.5299C8.4093 37.8146 6.00939 36.0793 4.44721 34.38C2.89498 32.6915 2.26831 31.1535 2.26831 29.7573C2.26831 28.361 2.89498 26.8231 4.44721 25.1346C6.00939 23.4353 8.4093 21.6999 11.6687 19.9846C18.1834 16.5561 27.7418 13.4078 39.7216 10.7412C63.6486 5.41518 96.8005 2.10364 133.486 2.10364C170.172 2.10364 203.324 5.41518 227.251 10.7412C239.231 13.4078 248.79 16.5561 255.304 19.9846C258.564 21.6999 260.964 23.4353 262.526 25.1346C264.078 26.8231 264.705 28.361 264.705 29.7573Z" fill="#AD7145" stroke="black" stroke-width="4"/>
<path d="M73.8975 27.8633C73.8975 29.1582 73.652 30.2796 73.1611 31.2275C72.6787 32.1755 71.9974 32.971 71.1172 33.6143C70.237 34.249 69.1748 34.7441 67.9307 35.0996C66.695 35.4551 65.3239 35.6836 63.8174 35.7852C63.8851 36.4707 63.9486 37.1732 64.0078 37.8926C64.0755 38.6035 64.1559 39.3568 64.249 40.1523L58.2441 40.5713C58.4134 38.3962 58.5446 36.2337 58.6377 34.084C58.7393 31.9258 58.79 29.7549 58.79 27.5713C58.79 27.0042 58.7858 26.488 58.7773 26.0225C58.7773 25.557 58.7689 25.1042 58.752 24.6641C58.7435 24.224 58.7266 23.7712 58.7012 23.3057C58.6758 22.8402 58.6462 22.3197 58.6123 21.7441C59.6364 21.431 60.6774 21.2067 61.7354 21.0713C62.8018 20.9359 63.902 20.8682 65.0361 20.8682C65.6032 20.8682 66.2168 20.8978 66.877 20.957C67.5371 21.0163 68.193 21.1348 68.8447 21.3125C69.5049 21.4902 70.1354 21.7399 70.7363 22.0615C71.3457 22.3747 71.8831 22.7894 72.3486 23.3057C72.8226 23.8219 73.1992 24.4567 73.4785 25.21C73.7578 25.9548 73.8975 26.8392 73.8975 27.8633ZM63.3477 23.5469C63.3477 24.3509 63.3477 25.138 63.3477 25.9082C63.3561 26.6699 63.3688 27.4316 63.3857 28.1934C63.4027 28.9466 63.4238 29.7083 63.4492 30.4785C63.4831 31.2487 63.5254 32.04 63.5762 32.8525H64.0459C64.7907 32.8525 65.5397 32.8314 66.293 32.7891C67.0462 32.7383 67.7614 32.6536 68.4385 32.5352C68.557 32.0781 68.6416 31.5026 68.6924 30.8086C68.7516 30.1146 68.7812 29.374 68.7812 28.5869C68.7812 28.096 68.7686 27.6009 68.7432 27.1016C68.7178 26.6022 68.6839 26.124 68.6416 25.667C68.5993 25.21 68.54 24.7868 68.4639 24.3975C68.3962 23.9997 68.32 23.6611 68.2354 23.3818C68.1169 23.3649 67.9772 23.3522 67.8164 23.3438C67.6641 23.3353 67.4906 23.3311 67.2959 23.3311C66.9066 23.3311 66.4834 23.3438 66.0264 23.3691C65.5778 23.3945 65.1504 23.4199 64.7441 23.4453C64.2786 23.4792 63.8132 23.513 63.3477 23.5469ZM87.6592 31.9893C87.109 31.9469 86.5589 31.9173 86.0088 31.9004C85.4587 31.875 84.9085 31.8623 84.3584 31.8623C83.8252 31.8623 83.292 31.875 82.7588 31.9004C82.2256 31.9173 81.6839 31.9469 81.1338 31.9893V34.1221C81.1338 34.6299 81.138 35.1208 81.1465 35.5947C81.1549 36.0602 81.1676 36.4961 81.1846 36.9023C81.7347 36.8854 82.3187 36.877 82.9365 36.877C83.5628 36.877 84.1934 36.877 84.8281 36.877C85.4629 36.877 86.0723 36.8812 86.6562 36.8896C87.2402 36.8896 87.7607 36.8896 88.2178 36.8896C88.7425 36.8981 89.2419 36.9023 89.7158 36.9023C89.7074 37.0208 89.6989 37.152 89.6904 37.2959C89.682 37.4144 89.6735 37.5583 89.665 37.7275C89.665 37.8968 89.665 38.083 89.665 38.2861C89.665 38.5485 89.6693 38.832 89.6777 39.1367C89.6947 39.4414 89.7158 39.7546 89.7412 40.0762C89.4111 40.0592 89.0726 40.0508 88.7256 40.0508C88.387 40.0508 88.057 40.0508 87.7354 40.0508C85.7126 40.0508 83.7067 40.0804 81.7178 40.1396C79.7373 40.2074 77.7399 40.3089 75.7256 40.4443C75.7256 40.1904 75.7298 39.835 75.7383 39.3779C75.7467 38.9209 75.7552 38.3877 75.7637 37.7783C75.7806 37.1605 75.7975 36.4876 75.8145 35.7598C75.8398 35.0234 75.861 34.2575 75.8779 33.4619C75.8949 32.6663 75.9118 31.8538 75.9287 31.0244C75.9541 30.195 75.971 29.3783 75.9795 28.5742C75.9964 27.7617 76.0091 26.9831 76.0176 26.2383C76.026 25.485 76.0303 24.7868 76.0303 24.1436C76.0303 23.5257 76.026 22.9798 76.0176 22.5059C76.0176 22.0234 76.0049 21.6214 75.9795 21.2998C76.8512 21.2998 77.723 21.3083 78.5947 21.3252C79.4665 21.3337 80.3467 21.3379 81.2354 21.3379C82.5726 21.3379 83.9141 21.3167 85.2598 21.2744C86.6055 21.2321 87.985 21.139 89.3984 20.9951C89.3561 21.2829 89.3265 21.5622 89.3096 21.833C89.3011 22.0954 89.2969 22.3451 89.2969 22.582C89.2969 22.8105 89.3011 23.0221 89.3096 23.2168C89.318 23.403 89.3307 23.5638 89.3477 23.6992C89.3646 23.8516 89.3815 23.9912 89.3984 24.1182C88.4082 24.1689 87.4307 24.2113 86.4658 24.2451C86.0511 24.262 85.6195 24.279 85.1709 24.2959C84.7308 24.3044 84.2865 24.3171 83.8379 24.334C83.3978 24.3424 82.9661 24.3509 82.543 24.3594C82.1283 24.3678 81.7432 24.3721 81.3877 24.3721C81.3708 24.7783 81.3496 25.2184 81.3242 25.6924C81.3073 26.0986 81.2861 26.5768 81.2607 27.127C81.2438 27.6771 81.2269 28.2695 81.21 28.9043C82.2425 28.8874 83.2835 28.8535 84.333 28.8027C85.391 28.752 86.4997 28.68 87.6592 28.5869C87.6338 28.9085 87.6084 29.2344 87.583 29.5645C87.5661 29.8861 87.5576 30.2204 87.5576 30.5674C87.5576 30.7959 87.5618 31.0286 87.5703 31.2656C87.5872 31.5026 87.6169 31.7438 87.6592 31.9893ZM107.781 34.6934C107.781 35.7936 107.561 36.7246 107.121 37.4863C106.689 38.2396 106.084 38.8532 105.306 39.3271C104.535 39.7926 103.617 40.127 102.551 40.3301C101.484 40.5417 100.325 40.6475 99.0723 40.6475C98.5052 40.6475 97.917 40.5924 97.3076 40.4824C96.6982 40.3809 96.0973 40.2158 95.5049 39.9873C94.9124 39.7503 94.3454 39.4541 93.8037 39.0986C93.262 38.7432 92.7754 38.3158 92.3438 37.8164C91.9206 37.3086 91.5609 36.7288 91.2646 36.0771C90.9769 35.4255 90.7907 34.6891 90.7061 33.8682L96.2412 33.7539C96.2243 33.9909 96.2158 34.2321 96.2158 34.4775C96.2158 34.723 96.2158 34.9769 96.2158 35.2393C96.2158 35.9756 96.2412 36.7288 96.292 37.499C96.7913 37.5583 97.2907 37.6006 97.79 37.626C98.2894 37.6514 98.7887 37.6641 99.2881 37.6641C99.7874 37.6641 100.283 37.6514 100.773 37.626C101.264 37.6006 101.764 37.5583 102.271 37.499C102.314 37.2113 102.348 36.932 102.373 36.6611C102.398 36.3818 102.411 36.0983 102.411 35.8105C102.411 35.3451 102.382 34.8753 102.322 34.4014C102.263 33.9274 102.187 33.4535 102.094 32.9795C101.501 32.9118 100.82 32.8356 100.05 32.751C99.2796 32.6663 98.4883 32.5436 97.6758 32.3828C96.8717 32.2135 96.0804 31.9935 95.3018 31.7227C94.5316 31.4434 93.8418 31.0794 93.2324 30.6309C92.623 30.1738 92.1322 29.6152 91.7598 28.9551C91.3874 28.2949 91.2012 27.4951 91.2012 26.5557C91.2012 25.904 91.3197 25.3115 91.5566 24.7783C91.8021 24.2451 92.1279 23.7712 92.5342 23.3564C92.9489 22.9333 93.4271 22.5651 93.9688 22.252C94.5189 21.9388 95.0944 21.6807 95.6953 21.4775C96.3047 21.2744 96.9225 21.1221 97.5488 21.0205C98.1751 20.9189 98.7803 20.8682 99.3643 20.8682C100.642 20.8682 101.768 21.0671 102.741 21.4648C103.715 21.8626 104.531 22.3831 105.191 23.0264C105.86 23.6611 106.376 24.3805 106.74 25.1846C107.104 25.9886 107.316 26.7926 107.375 27.5967L101.573 28.2188C101.616 27.8971 101.641 27.5755 101.649 27.2539C101.666 26.9238 101.675 26.598 101.675 26.2764C101.675 25.54 101.624 24.7952 101.522 24.042C101.235 23.9997 100.947 23.9701 100.659 23.9531C100.38 23.9362 100.096 23.9277 99.8086 23.9277C98.666 23.9277 97.5107 24.0674 96.3428 24.3467C96.3258 24.5583 96.3174 24.7656 96.3174 24.9688C96.3174 25.1719 96.3174 25.3708 96.3174 25.5654C96.3174 26.1579 96.3385 26.7419 96.3809 27.3174C96.4316 27.8844 96.5247 28.4557 96.6602 29.0312C97.3626 29.1243 98.1243 29.2259 98.9453 29.3359C99.7663 29.4375 100.587 29.5771 101.408 29.7549C102.238 29.9242 103.033 30.14 103.795 30.4023C104.565 30.6562 105.242 30.9779 105.826 31.3672C106.419 31.748 106.893 32.2135 107.248 32.7637C107.604 33.3053 107.781 33.9486 107.781 34.6934ZM127.814 30.8213C127.814 31.6761 127.721 32.4971 127.535 33.2842C127.357 34.0628 127.099 34.7949 126.761 35.4805C126.422 36.166 126.007 36.7965 125.517 37.3721C125.034 37.9476 124.484 38.4512 123.866 38.8828C124.518 39.4922 125.123 40.1185 125.682 40.7617C126.24 41.4134 126.769 42.0778 127.269 42.7549C126.109 43.0003 125.021 43.3177 124.006 43.707C122.99 44.1048 122.025 44.5661 121.111 45.0908C120.967 44.2783 120.802 43.4912 120.616 42.7295C120.438 41.9678 120.248 41.2061 120.045 40.4443C119.715 40.4951 119.385 40.5374 119.055 40.5713C118.733 40.6051 118.403 40.6221 118.064 40.6221C117.43 40.6221 116.77 40.5459 116.084 40.3936C115.398 40.2497 114.726 40.0127 114.065 39.6826C113.405 39.3441 112.775 38.9082 112.174 38.375C111.581 37.8418 111.061 37.1901 110.612 36.4199C110.164 35.6497 109.804 34.7526 109.533 33.7285C109.271 32.7044 109.14 31.5365 109.14 30.2246C109.14 28.9382 109.288 27.8125 109.584 26.8477C109.889 25.8828 110.286 25.0576 110.777 24.3721C111.268 23.6781 111.831 23.1068 112.466 22.6582C113.109 22.2096 113.769 21.8542 114.446 21.5918C115.123 21.3294 115.792 21.1475 116.452 21.0459C117.112 20.9443 117.717 20.8936 118.268 20.8936C119.122 20.8936 119.948 20.974 120.743 21.1348C121.547 21.2871 122.3 21.5326 123.003 21.8711C123.705 22.2012 124.349 22.6286 124.933 23.1533C125.517 23.6781 126.02 24.3086 126.443 25.0449C126.867 25.7812 127.197 26.6276 127.434 27.584C127.679 28.5404 127.806 29.6195 127.814 30.8213ZM121.619 37.0039C121.67 36.4961 121.716 35.9375 121.759 35.3281C121.801 34.7188 121.835 34.0967 121.86 33.4619C121.886 32.8271 121.903 32.2051 121.911 31.5957C121.928 30.9779 121.937 30.415 121.937 29.9072C121.937 28.9339 121.911 27.9225 121.86 26.873C121.81 25.8151 121.729 24.7995 121.619 23.8262C121.492 23.8177 121.34 23.8092 121.162 23.8008C120.984 23.7923 120.798 23.7881 120.604 23.7881C120.417 23.7796 120.235 23.7754 120.058 23.7754C119.88 23.7754 119.728 23.7754 119.601 23.7754C119.22 23.7754 118.813 23.7839 118.382 23.8008C117.959 23.8177 117.527 23.8473 117.087 23.8896C116.647 23.9235 116.211 23.9701 115.779 24.0293C115.356 24.0801 114.954 24.1436 114.573 24.2197C114.573 24.4059 114.569 24.6471 114.561 24.9434C114.561 25.2311 114.561 25.5316 114.561 25.8447C114.561 26.1494 114.556 26.4456 114.548 26.7334C114.548 27.0127 114.548 27.2412 114.548 27.4189C114.548 29.0016 114.599 30.6097 114.7 32.2432C114.81 33.8766 114.971 35.4635 115.183 37.0039C115.394 37.0378 115.631 37.0674 115.894 37.0928C116.164 37.1182 116.439 37.1393 116.719 37.1562C116.998 37.1647 117.273 37.1732 117.544 37.1816C117.815 37.1901 118.056 37.1943 118.268 37.1943C118.505 37.1943 118.767 37.1901 119.055 37.1816C119.342 37.1732 119.634 37.1647 119.931 37.1562C120.227 37.1393 120.519 37.1182 120.807 37.0928C121.103 37.0674 121.374 37.0378 121.619 37.0039ZM147.086 30.5039C147.077 31.4095 147.01 32.2855 146.883 33.1318C146.756 33.9782 146.553 34.778 146.273 35.5312C145.994 36.2845 145.63 36.9743 145.182 37.6006C144.733 38.2184 144.187 38.7516 143.544 39.2002C142.901 39.6488 142.152 39.9958 141.297 40.2412C140.442 40.4951 139.469 40.6221 138.377 40.6221C137.09 40.6221 135.918 40.4359 134.86 40.0635C133.802 39.6995 132.897 39.1113 132.144 38.2988C131.39 37.4779 130.806 36.4115 130.392 35.0996C129.977 33.7878 129.77 32.1882 129.77 30.3008C129.77 29.3105 129.795 28.3669 129.846 27.4697C129.896 26.5641 129.968 25.7347 130.062 24.9814C130.155 24.2282 130.26 23.5553 130.379 22.9629C130.506 22.362 130.641 21.8711 130.785 21.4902H135.774C135.741 21.6934 135.69 22.0488 135.622 22.5566C135.563 23.0645 135.499 23.6611 135.432 24.3467C135.372 25.0322 135.317 25.777 135.267 26.5811C135.224 27.3766 135.203 28.1595 135.203 28.9297C135.203 29.6491 135.212 30.3896 135.229 31.1514C135.254 31.9131 135.288 32.6579 135.33 33.3857C135.381 34.1051 135.44 34.7907 135.508 35.4424C135.584 36.0856 135.673 36.6527 135.774 37.1436C136.147 37.1943 136.562 37.2324 137.019 37.2578C137.476 37.2832 137.945 37.2959 138.428 37.2959C138.91 37.2959 139.388 37.2832 139.862 37.2578C140.336 37.2324 140.776 37.1943 141.183 37.1436C141.25 36.6527 141.305 36.0856 141.348 35.4424C141.39 34.7992 141.424 34.1178 141.449 33.3984C141.475 32.679 141.492 31.9427 141.5 31.1895C141.517 30.4277 141.525 29.6914 141.525 28.9805C141.525 28.2018 141.517 27.4697 141.5 26.7842C141.483 26.0902 141.458 25.4342 141.424 24.8164C141.39 24.1986 141.352 23.6146 141.31 23.0645C141.276 22.5143 141.233 21.9896 141.183 21.4902H146.045C146.273 22.6328 146.455 23.6569 146.591 24.5625C146.726 25.4596 146.832 26.2721 146.908 27C146.984 27.7194 147.031 28.3626 147.048 28.9297C147.073 29.4967 147.086 30.0215 147.086 30.5039ZM159.984 24.2197C158.893 24.1689 157.809 24.1436 156.734 24.1436H156.658C156.658 24.499 156.654 24.9984 156.646 25.6416C156.646 26.2764 156.646 26.9915 156.646 27.7871C156.646 28.5742 156.641 29.4079 156.633 30.2881C156.624 31.1683 156.62 32.0231 156.62 32.8525C156.62 33.682 156.616 34.4564 156.607 35.1758C156.607 35.8867 156.607 36.4792 156.607 36.9531H159.388V40.1523H148.876V36.9531H151.136C151.153 36.513 151.17 35.9798 151.187 35.3535C151.212 34.7272 151.237 34.0501 151.263 33.3223C151.288 32.5944 151.313 31.8327 151.339 31.0371C151.373 30.2415 151.398 29.4502 151.415 28.6631C151.44 27.8675 151.462 27.0973 151.479 26.3525C151.495 25.6077 151.504 24.9222 151.504 24.2959C151.098 24.3128 150.696 24.334 150.298 24.3594C149.9 24.3763 149.498 24.3975 149.092 24.4229C149.117 24.0589 149.138 23.7204 149.155 23.4072C149.181 23.0856 149.193 22.7682 149.193 22.4551C149.193 22.2096 149.185 21.9642 149.168 21.7188C149.16 21.4648 149.134 21.1898 149.092 20.8936C149.701 20.9359 150.391 20.9655 151.161 20.9824C151.931 20.9909 152.723 20.9951 153.535 20.9951C154.348 20.9951 155.135 20.9909 155.896 20.9824C156.667 20.974 157.356 20.9613 157.966 20.9443C158.677 20.9274 159.35 20.9105 159.984 20.8936V24.2197ZM178.062 34.6934C178.062 35.7936 177.842 36.7246 177.402 37.4863C176.971 38.2396 176.366 38.8532 175.587 39.3271C174.817 39.7926 173.898 40.127 172.832 40.3301C171.766 40.5417 170.606 40.6475 169.354 40.6475C168.786 40.6475 168.198 40.5924 167.589 40.4824C166.979 40.3809 166.379 40.2158 165.786 39.9873C165.194 39.7503 164.627 39.4541 164.085 39.0986C163.543 38.7432 163.057 38.3158 162.625 37.8164C162.202 37.3086 161.842 36.7288 161.546 36.0771C161.258 35.4255 161.072 34.6891 160.987 33.8682L166.522 33.7539C166.506 33.9909 166.497 34.2321 166.497 34.4775C166.497 34.723 166.497 34.9769 166.497 35.2393C166.497 35.9756 166.522 36.7288 166.573 37.499C167.073 37.5583 167.572 37.6006 168.071 37.626C168.571 37.6514 169.07 37.6641 169.569 37.6641C170.069 37.6641 170.564 37.6514 171.055 37.626C171.546 37.6006 172.045 37.5583 172.553 37.499C172.595 37.2113 172.629 36.932 172.654 36.6611C172.68 36.3818 172.692 36.0983 172.692 35.8105C172.692 35.3451 172.663 34.8753 172.604 34.4014C172.544 33.9274 172.468 33.4535 172.375 32.9795C171.783 32.9118 171.101 32.8356 170.331 32.751C169.561 32.6663 168.77 32.5436 167.957 32.3828C167.153 32.2135 166.362 31.9935 165.583 31.7227C164.813 31.4434 164.123 31.0794 163.514 30.6309C162.904 30.1738 162.413 29.6152 162.041 28.9551C161.669 28.2949 161.482 27.4951 161.482 26.5557C161.482 25.904 161.601 25.3115 161.838 24.7783C162.083 24.2451 162.409 23.7712 162.815 23.3564C163.23 22.9333 163.708 22.5651 164.25 22.252C164.8 21.9388 165.376 21.6807 165.977 21.4775C166.586 21.2744 167.204 21.1221 167.83 21.0205C168.456 20.9189 169.062 20.8682 169.646 20.8682C170.924 20.8682 172.049 21.0671 173.022 21.4648C173.996 21.8626 174.812 22.3831 175.473 23.0264C176.141 23.6611 176.658 24.3805 177.021 25.1846C177.385 25.9886 177.597 26.7926 177.656 27.5967L171.854 28.2188C171.897 27.8971 171.922 27.5755 171.931 27.2539C171.948 26.9238 171.956 26.598 171.956 26.2764C171.956 25.54 171.905 24.7952 171.804 24.042C171.516 23.9997 171.228 23.9701 170.94 23.9531C170.661 23.9362 170.378 23.9277 170.09 23.9277C168.947 23.9277 167.792 24.0674 166.624 24.3467C166.607 24.5583 166.599 24.7656 166.599 24.9688C166.599 25.1719 166.599 25.3708 166.599 25.5654C166.599 26.1579 166.62 26.7419 166.662 27.3174C166.713 27.8844 166.806 28.4557 166.941 29.0312C167.644 29.1243 168.406 29.2259 169.227 29.3359C170.048 29.4375 170.868 29.5771 171.689 29.7549C172.519 29.9242 173.314 30.14 174.076 30.4023C174.846 30.6562 175.523 30.9779 176.107 31.3672C176.7 31.748 177.174 32.2135 177.529 32.7637C177.885 33.3053 178.062 33.9486 178.062 34.6934ZM195.912 40.7744C195.286 40.6898 194.736 40.6136 194.262 40.5459C193.796 40.4867 193.356 40.4359 192.941 40.3936C192.535 40.3597 192.137 40.3343 191.748 40.3174C191.359 40.3005 190.936 40.292 190.479 40.292C190.699 39.5557 190.885 38.8024 191.037 38.0322C191.198 37.262 191.325 36.4707 191.418 35.6582C190.91 35.6413 190.39 35.6286 189.856 35.6201C189.323 35.6117 188.794 35.6074 188.27 35.6074C187.195 35.6074 186.162 35.6328 185.172 35.6836C185.214 36.4453 185.273 37.207 185.35 37.9688C185.426 38.722 185.523 39.4753 185.642 40.2285C185.041 40.2708 184.503 40.3089 184.029 40.3428C183.555 40.3766 183.136 40.4062 182.772 40.4316C182.409 40.4655 182.095 40.4951 181.833 40.5205C181.571 40.5544 181.346 40.584 181.16 40.6094C180.729 40.6686 180.437 40.7236 180.284 40.7744C180.174 40.2243 180.081 39.6445 180.005 39.0352C179.937 38.4258 179.882 37.8206 179.84 37.2197C179.806 36.6104 179.781 36.0179 179.764 35.4424C179.747 34.8669 179.738 34.3337 179.738 33.8428C179.738 32.8187 179.776 31.7904 179.853 30.7578C179.937 29.7253 180.09 28.7308 180.31 27.7744C180.538 26.818 180.851 25.9294 181.249 25.1084C181.647 24.279 182.167 23.5596 182.811 22.9502C183.454 22.3324 184.232 21.8499 185.146 21.5029C186.061 21.1475 187.144 20.9697 188.396 20.9697C189.683 20.9697 190.864 21.1686 191.938 21.5664C193.013 21.9557 193.936 22.5609 194.706 23.3818C195.485 24.2028 196.086 25.248 196.509 26.5176C196.94 27.7786 197.156 29.2809 197.156 31.0244C197.156 31.473 197.144 32.0316 197.118 32.7002C197.101 33.3688 197.05 34.1221 196.966 34.96C196.881 35.7979 196.754 36.7119 196.585 37.7021C196.424 38.6839 196.2 39.708 195.912 40.7744ZM187.381 32.3828C188.117 32.3828 188.849 32.3701 189.577 32.3447C190.313 32.3109 191.012 32.2559 191.672 32.1797C191.689 31.985 191.697 31.7904 191.697 31.5957C191.697 31.3926 191.697 31.1852 191.697 30.9736C191.697 29.6872 191.638 28.4473 191.52 27.2539C191.41 26.0605 191.244 24.9518 191.024 23.9277C190.83 23.9108 190.614 23.8981 190.377 23.8896C190.148 23.8812 189.903 23.877 189.641 23.877C189.294 23.877 188.934 23.8854 188.562 23.9023C188.198 23.9108 187.838 23.9277 187.482 23.9531C187.135 23.9701 186.801 23.9954 186.479 24.0293C186.158 24.0632 185.879 24.1012 185.642 24.1436C185.455 25.4893 185.316 26.8434 185.223 28.2061C185.138 29.5602 185.096 30.9355 185.096 32.332C185.46 32.3574 185.832 32.3743 186.213 32.3828C186.602 32.3828 186.992 32.3828 187.381 32.3828ZM215.12 27.3428C215.12 28.0029 215.014 28.6165 214.803 29.1836C214.591 29.7422 214.286 30.2585 213.889 30.7324C213.491 31.1979 213.008 31.6211 212.441 32.002C211.874 32.3828 211.235 32.7171 210.524 33.0049L216.136 39.9492L210.258 40.5967L206.563 34.1221C206.301 34.1729 206.03 34.2194 205.751 34.2617C205.472 34.304 205.188 34.3464 204.9 34.3887C204.968 35.2604 205.049 36.1702 205.142 37.1182C205.243 38.0661 205.353 39.0775 205.472 40.1523L199.467 40.5713C199.636 38.3962 199.767 36.2337 199.86 34.084C199.962 31.9258 200.013 29.7549 200.013 27.5713C200.013 27.0042 200.008 26.488 200 26.0225C200 25.557 199.992 25.1042 199.975 24.6641C199.966 24.224 199.949 23.7712 199.924 23.3057C199.898 22.8402 199.869 22.3197 199.835 21.7441C200.859 21.431 201.9 21.2067 202.958 21.0713C204.024 20.9359 205.125 20.8682 206.259 20.8682C206.826 20.8682 207.439 20.9062 208.1 20.9824C208.76 21.0586 209.416 21.1898 210.067 21.376C210.728 21.5622 211.358 21.8118 211.959 22.125C212.568 22.4382 213.106 22.8359 213.571 23.3184C214.045 23.8008 214.422 24.3721 214.701 25.0322C214.98 25.6924 215.12 26.4626 215.12 27.3428ZM204.57 23.5469C204.57 24.9349 204.579 26.2764 204.596 27.5713C204.621 28.8577 204.672 30.1823 204.748 31.5449H205.269C206.013 31.5449 206.762 31.5238 207.516 31.4814C208.269 31.4391 208.984 31.3587 209.661 31.2402C209.78 30.7832 209.864 30.2627 209.915 29.6787C209.974 29.0863 210.004 28.4727 210.004 27.8379C210.004 27.4316 209.991 27.0254 209.966 26.6191C209.94 26.2044 209.907 25.8066 209.864 25.4258C209.822 25.0365 209.763 24.6683 209.687 24.3213C209.619 23.9743 209.543 23.6611 209.458 23.3818C209.34 23.3649 209.2 23.3522 209.039 23.3438C208.887 23.3353 208.713 23.3311 208.519 23.3311C208.129 23.3311 207.706 23.3438 207.249 23.3691C206.8 23.3945 206.373 23.4199 205.967 23.4453C205.501 23.4792 205.036 23.513 204.57 23.5469Z" fill="black"/>
</svg>
