<svg width="160" height="34" viewBox="0 0 160 34" fill="none" xmlns="http://www.w3.org/2000/svg">
<path d="M158 17C158 17.4904 157.775 18.1653 156.934 19.0388C156.085 19.9204 154.732 20.8671 152.815 21.83C148.989 23.7526 143.321 25.5412 136.153 27.0645C121.849 30.1041 101.995 32 80 32C58.0051 32 38.151 30.1041 23.8472 27.0645C16.6789 25.5412 11.0114 23.7526 7.18466 21.83C5.26795 20.8671 3.91487 19.9204 3.06596 19.0388C2.22481 18.1653 2 17.4904 2 17C2 16.5096 2.22481 15.8347 3.06596 14.9612C3.91487 14.0796 5.26795 13.1329 7.18466 12.17C11.0114 10.2474 16.6789 8.45877 23.8472 6.9355C38.151 3.89594 58.0051 2 80 2C101.995 2 121.849 3.89594 136.153 6.9355C143.321 8.45877 148.989 10.2474 152.815 12.17C154.732 13.1329 156.085 14.0796 156.934 14.9612C157.775 15.8347 158 16.5096 158 17Z" fill="#AD7145" stroke="black" stroke-width="4"/>
<path d="M59.2716 20.701C59.2716 21.378 59.1362 21.951 58.8654 22.4197C58.5997 22.8832 58.2273 23.2609 57.7482 23.5525C57.2742 23.839 56.7091 24.0447 56.0529 24.1697C55.3966 24.2999 54.6831 24.365 53.9122 24.365C53.5633 24.365 53.2013 24.3312 52.8263 24.2635C52.4513 24.201 52.0815 24.0994 51.7169 23.9588C51.3523 23.8129 51.0034 23.6306 50.67 23.4119C50.3367 23.1931 50.0372 22.9301 49.7716 22.6228C49.5112 22.3103 49.2898 21.9536 49.1075 21.5525C48.9305 21.1515 48.8159 20.6984 48.7638 20.1931L52.17 20.1228C52.1596 20.2687 52.1544 20.4171 52.1544 20.5681C52.1544 20.7192 52.1544 20.8754 52.1544 21.0369C52.1544 21.49 52.17 21.9536 52.2013 22.4275C52.5086 22.464 52.8159 22.49 53.1232 22.5056C53.4305 22.5213 53.7378 22.5291 54.045 22.5291C54.3523 22.5291 54.657 22.5213 54.9591 22.5056C55.2612 22.49 55.5685 22.464 55.881 22.4275C55.907 22.2504 55.9279 22.0786 55.9435 21.9119C55.9591 21.74 55.9669 21.5655 55.9669 21.3885C55.9669 21.102 55.9487 20.8129 55.9122 20.5213C55.8758 20.2296 55.8289 19.9379 55.7716 19.6463C55.407 19.6046 54.9878 19.5577 54.5138 19.5056C54.0398 19.4536 53.5529 19.378 53.0529 19.2791C52.5581 19.1749 52.0711 19.0395 51.5919 18.8728C51.118 18.701 50.6935 18.477 50.3185 18.201C49.9435 17.9197 49.6414 17.576 49.4122 17.1697C49.1831 16.7635 49.0685 16.2713 49.0685 15.6931C49.0685 15.2921 49.1414 14.9275 49.2872 14.5994C49.4383 14.2713 49.6388 13.9796 49.8888 13.7244C50.144 13.464 50.4383 13.2374 50.7716 13.0447C51.1101 12.852 51.4643 12.6931 51.8341 12.5681C52.2091 12.4431 52.5893 12.3494 52.9747 12.2869C53.3601 12.2244 53.7325 12.1931 54.0919 12.1931C54.8784 12.1931 55.5711 12.3155 56.17 12.5603C56.769 12.8051 57.2716 13.1254 57.6779 13.5213C58.0893 13.9119 58.407 14.3546 58.631 14.8494C58.8549 15.3442 58.9851 15.839 59.0216 16.3338L55.4513 16.7166C55.4773 16.5187 55.493 16.3207 55.4982 16.1228C55.5086 15.9197 55.5138 15.7192 55.5138 15.5213C55.5138 15.0681 55.4825 14.6098 55.42 14.1463C55.243 14.1202 55.0659 14.102 54.8888 14.0916C54.7169 14.0812 54.5424 14.076 54.3654 14.076C53.6622 14.076 52.9513 14.1619 52.2325 14.3338C52.2221 14.464 52.2169 14.5916 52.2169 14.7166C52.2169 14.8416 52.2169 14.964 52.2169 15.0838C52.2169 15.4484 52.2299 15.8077 52.256 16.1619C52.2872 16.5109 52.3445 16.8624 52.4279 17.2166C52.8601 17.2739 53.3289 17.3364 53.8341 17.4041C54.3393 17.4666 54.8445 17.5525 55.3497 17.6619C55.8601 17.7661 56.3497 17.8989 56.8185 18.0603C57.2924 18.2166 57.7091 18.4145 58.0685 18.6541C58.4331 18.8885 58.7247 19.1749 58.9435 19.5135C59.1622 19.8468 59.2716 20.2426 59.2716 20.701ZM70.256 24.4431C69.8706 24.3911 69.532 24.3442 69.2404 24.3025C68.9539 24.2661 68.6831 24.2348 68.4279 24.2088C68.1779 24.1879 67.9331 24.1723 67.6935 24.1619C67.4539 24.1515 67.1935 24.1463 66.9122 24.1463C67.0476 23.6931 67.1622 23.2296 67.256 22.7556C67.3549 22.2817 67.4331 21.7947 67.4904 21.2947C67.1779 21.2843 66.8575 21.2765 66.5294 21.2713C66.2013 21.2661 65.8758 21.2635 65.5529 21.2635C64.8914 21.2635 64.256 21.2791 63.6466 21.3103C63.6726 21.7791 63.7091 22.2478 63.756 22.7166C63.8029 23.1801 63.8628 23.6437 63.9357 24.1072C63.5659 24.1332 63.2351 24.1567 62.9435 24.1775C62.6518 24.1984 62.394 24.2166 62.17 24.2322C61.9461 24.253 61.7534 24.2713 61.5919 24.2869C61.4305 24.3077 61.2924 24.326 61.1779 24.3416C60.9122 24.378 60.7325 24.4119 60.6388 24.4431C60.5711 24.1046 60.5138 23.7478 60.4669 23.3728C60.4253 22.9978 60.3914 22.6254 60.3654 22.2556C60.3445 21.8806 60.3289 21.5161 60.3185 21.1619C60.3081 20.8077 60.3029 20.4796 60.3029 20.1775C60.3029 19.5473 60.3263 18.9145 60.3732 18.2791C60.4253 17.6437 60.519 17.0317 60.6544 16.4431C60.795 15.8546 60.9878 15.3077 61.2325 14.8025C61.4773 14.2921 61.7976 13.8494 62.1935 13.4744C62.5893 13.0942 63.0685 12.7973 63.631 12.5838C64.1935 12.365 64.8601 12.2556 65.631 12.2556C66.4226 12.2556 67.1492 12.378 67.8107 12.6228C68.4721 12.8624 69.0398 13.2348 69.5138 13.74C69.993 14.2452 70.3628 14.8885 70.6232 15.6697C70.8888 16.4457 71.0216 17.3702 71.0216 18.4431C71.0216 18.7192 71.0138 19.0629 70.9982 19.4744C70.9878 19.8859 70.9565 20.3494 70.9044 20.865C70.8523 21.3806 70.7742 21.9431 70.67 22.5525C70.5711 23.1567 70.4331 23.7869 70.256 24.4431ZM65.006 19.2791C65.4591 19.2791 65.9096 19.2713 66.3575 19.2556C66.8107 19.2348 67.2404 19.201 67.6466 19.1541C67.657 19.0343 67.6622 18.9145 67.6622 18.7947C67.6622 18.6697 67.6622 18.5421 67.6622 18.4119C67.6622 17.6202 67.6258 16.8572 67.5529 16.1228C67.4851 15.3885 67.3836 14.7062 67.2482 14.076C67.1284 14.0655 66.9956 14.0577 66.8497 14.0525C66.7091 14.0473 66.5581 14.0447 66.3966 14.0447C66.1831 14.0447 65.9617 14.0499 65.7325 14.0603C65.5086 14.0655 65.2872 14.076 65.0685 14.0916C64.8549 14.102 64.6492 14.1176 64.4513 14.1385C64.2534 14.1593 64.0815 14.1827 63.9357 14.2088C63.8211 15.0369 63.7351 15.8702 63.6779 16.7088C63.6258 17.5421 63.5997 18.3885 63.5997 19.2478C63.8237 19.2635 64.0529 19.2739 64.2872 19.2791C64.5268 19.2791 64.7664 19.2791 65.006 19.2791ZM80.7169 24.24C80.0034 24.1931 79.2846 24.1567 78.5607 24.1306C77.8367 24.1046 77.1101 24.0916 76.381 24.0916C75.7612 24.0916 75.1414 24.102 74.5216 24.1228C73.9018 24.1437 73.2742 24.1827 72.6388 24.24C72.6805 23.3025 72.7117 22.3728 72.7325 21.451C72.7534 20.5239 72.7638 19.5916 72.7638 18.6541C72.7638 17.6072 72.7534 16.5655 72.7325 15.5291C72.7117 14.4874 72.6805 13.4588 72.6388 12.4431H76.0919C76.0711 13.6775 76.0503 14.878 76.0294 16.0447C76.019 16.5447 76.0112 17.0603 76.006 17.5916C76.0008 18.1228 75.993 18.6463 75.9825 19.1619C75.9773 19.6775 75.9721 20.1723 75.9669 20.6463C75.9669 21.115 75.9669 21.5395 75.9669 21.9197L80.7169 21.7869V24.24ZM91.6154 12.0916C90.9851 14.102 90.4122 16.1254 89.8966 18.1619C89.3862 20.1984 88.9279 22.2192 88.5216 24.2244C88.032 24.2452 87.5164 24.2661 86.9747 24.2869C86.5112 24.3025 85.9904 24.3155 85.4122 24.326C84.8341 24.3416 84.2456 24.3494 83.6466 24.3494L80.6544 12.5135L84.3966 12.2713C84.6831 13.5421 84.9617 14.7895 85.2325 16.0135C85.3471 16.5343 85.4643 17.0786 85.5841 17.6463C85.7039 18.2088 85.8211 18.7687 85.9357 19.326C86.0503 19.878 86.1596 20.4145 86.2638 20.9353C86.368 21.451 86.4591 21.9275 86.5372 22.365C86.6935 21.7713 86.8549 21.1411 87.0216 20.4744C87.1883 19.8077 87.3497 19.1385 87.506 18.4666C87.6674 17.7895 87.8211 17.128 87.9669 16.4822C88.118 15.8312 88.256 15.2244 88.381 14.6619C88.506 14.0994 88.6128 13.5968 88.7013 13.1541C88.795 12.7062 88.868 12.352 88.92 12.0916H91.6154ZM102.053 24.4431C101.667 24.3911 101.329 24.3442 101.037 24.3025C100.751 24.2661 100.48 24.2348 100.225 24.2088C99.9747 24.1879 99.7299 24.1723 99.4904 24.1619C99.2508 24.1515 98.9904 24.1463 98.7091 24.1463C98.8445 23.6931 98.9591 23.2296 99.0529 22.7556C99.1518 22.2817 99.2299 21.7947 99.2872 21.2947C98.9747 21.2843 98.6544 21.2765 98.3263 21.2713C97.9982 21.2661 97.6726 21.2635 97.3497 21.2635C96.6883 21.2635 96.0529 21.2791 95.4435 21.3103C95.4695 21.7791 95.506 22.2478 95.5529 22.7166C95.5997 23.1801 95.6596 23.6437 95.7325 24.1072C95.3628 24.1332 95.032 24.1567 94.7404 24.1775C94.4487 24.1984 94.1909 24.2166 93.9669 24.2322C93.743 24.253 93.5503 24.2713 93.3888 24.2869C93.2273 24.3077 93.0893 24.326 92.9747 24.3416C92.7091 24.378 92.5294 24.4119 92.4357 24.4431C92.368 24.1046 92.3107 23.7478 92.2638 23.3728C92.2221 22.9978 92.1883 22.6254 92.1622 22.2556C92.1414 21.8806 92.1258 21.5161 92.1154 21.1619C92.1049 20.8077 92.0997 20.4796 92.0997 20.1775C92.0997 19.5473 92.1232 18.9145 92.17 18.2791C92.2221 17.6437 92.3159 17.0317 92.4513 16.4431C92.5919 15.8546 92.7846 15.3077 93.0294 14.8025C93.2742 14.2921 93.5945 13.8494 93.9904 13.4744C94.3862 13.0942 94.8654 12.7973 95.4279 12.5838C95.9904 12.365 96.657 12.2556 97.4279 12.2556C98.2195 12.2556 98.9461 12.378 99.6075 12.6228C100.269 12.8624 100.837 13.2348 101.311 13.74C101.79 14.2452 102.16 14.8885 102.42 15.6697C102.686 16.4457 102.818 17.3702 102.818 18.4431C102.818 18.7192 102.811 19.0629 102.795 19.4744C102.785 19.8859 102.753 20.3494 102.701 20.865C102.649 21.3806 102.571 21.9431 102.467 22.5525C102.368 23.1567 102.23 23.7869 102.053 24.4431ZM96.8029 19.2791C97.256 19.2791 97.7065 19.2713 98.1544 19.2556C98.6075 19.2348 99.0372 19.201 99.4435 19.1541C99.4539 19.0343 99.4591 18.9145 99.4591 18.7947C99.4591 18.6697 99.4591 18.5421 99.4591 18.4119C99.4591 17.6202 99.4226 16.8572 99.3497 16.1228C99.282 15.3885 99.1805 14.7062 99.045 14.076C98.9253 14.0655 98.7924 14.0577 98.6466 14.0525C98.506 14.0473 98.3549 14.0447 98.1935 14.0447C97.9799 14.0447 97.7586 14.0499 97.5294 14.0603C97.3055 14.0655 97.0841 14.076 96.8654 14.0916C96.6518 14.102 96.4461 14.1176 96.2482 14.1385C96.0503 14.1593 95.8784 14.1827 95.7325 14.2088C95.618 15.0369 95.532 15.8702 95.4747 16.7088C95.4226 17.5421 95.3966 18.3885 95.3966 19.2478C95.6206 19.2635 95.8497 19.2739 96.0841 19.2791C96.3237 19.2791 96.5633 19.2791 96.8029 19.2791ZM113.873 16.1775C113.873 16.5838 113.808 16.9614 113.678 17.3103C113.548 17.6541 113.36 17.9718 113.115 18.2635C112.871 18.5499 112.574 18.8103 112.225 19.0447C111.876 19.2791 111.483 19.4848 111.045 19.6619L114.498 23.9353L110.881 24.3338L108.608 20.3494C108.446 20.3806 108.279 20.4093 108.108 20.4353C107.936 20.4614 107.761 20.4874 107.584 20.5135C107.626 21.0499 107.675 21.6098 107.733 22.1931C107.795 22.7765 107.863 23.3989 107.936 24.0603L104.24 24.3181C104.345 22.9796 104.425 21.6489 104.483 20.326C104.545 18.9978 104.576 17.6619 104.576 16.3181C104.576 15.9692 104.574 15.6515 104.568 15.365C104.568 15.0786 104.563 14.7999 104.553 14.5291C104.548 14.2582 104.537 13.9796 104.522 13.6931C104.506 13.4067 104.488 13.0864 104.467 12.7322C105.097 12.5395 105.738 12.4015 106.389 12.3181C107.045 12.2348 107.722 12.1931 108.42 12.1931C108.769 12.1931 109.147 12.2166 109.553 12.2635C109.959 12.3103 110.363 12.3911 110.764 12.5056C111.17 12.6202 111.558 12.7739 111.928 12.9666C112.303 13.1593 112.634 13.4041 112.92 13.701C113.212 13.9978 113.443 14.3494 113.615 14.7556C113.787 15.1619 113.873 15.6359 113.873 16.1775ZM107.381 13.8416C107.381 14.6957 107.386 15.5213 107.397 16.3181C107.412 17.1098 107.443 17.9249 107.49 18.7635H107.811C108.269 18.7635 108.73 18.7504 109.193 18.7244C109.657 18.6984 110.097 18.6489 110.514 18.576C110.587 18.2947 110.639 17.9744 110.67 17.615C110.707 17.2504 110.725 16.8728 110.725 16.4822C110.725 16.2322 110.717 15.9822 110.701 15.7322C110.686 15.477 110.665 15.2322 110.639 14.9978C110.613 14.7582 110.576 14.5317 110.529 14.3181C110.488 14.1046 110.441 13.9119 110.389 13.74C110.316 13.7296 110.23 13.7218 110.131 13.7166C110.037 13.7114 109.93 13.7088 109.811 13.7088C109.571 13.7088 109.311 13.7166 109.029 13.7322C108.753 13.7478 108.49 13.7635 108.24 13.7791C107.954 13.7999 107.667 13.8207 107.381 13.8416Z" fill="black"/>
</svg>
