<svg width="416" height="284" viewBox="0 0 416 284" fill="none" xmlns="http://www.w3.org/2000/svg">
<ellipse cx="185.5" cy="142" rx="155.5" ry="142" fill="#D9D9D9"/>
<path d="M333 142C333 215.338 267.661 276 185.5 276C103.339 276 38 215.338 38 142C38 68.6622 103.339 8 185.5 8C267.661 8 333 68.6622 333 142Z" stroke="#AD7145" stroke-opacity="0.98" stroke-width="16"/>
<path d="M330 141.5C330 210.449 266.279 268 185.5 268C104.721 268 41 210.449 41 141.5C41 72.5506 104.721 15 185.5 15C266.279 15 330 72.5506 330 141.5Z" fill="#E3D2D2" fill-opacity="0.98" stroke="#F9EB65" stroke-width="16"/>
<path d="M68.1699 133.461C68.1699 135.652 67.7546 137.55 66.9238 139.154C66.1074 140.758 64.9544 142.105 63.4648 143.193C61.9753 144.268 60.1777 145.105 58.0723 145.707C55.9811 146.309 53.6608 146.695 51.1113 146.867C51.2259 148.027 51.3333 149.216 51.4336 150.434C51.5482 151.637 51.6842 152.911 51.8418 154.258L41.6797 154.967C41.9661 151.286 42.1882 147.626 42.3457 143.988C42.5176 140.336 42.6035 136.662 42.6035 132.967C42.6035 132.007 42.5964 131.133 42.582 130.346C42.582 129.558 42.5677 128.792 42.5391 128.047C42.5247 127.302 42.4961 126.536 42.4531 125.748C42.4102 124.96 42.36 124.079 42.3027 123.105C44.0358 122.576 45.7975 122.196 47.5879 121.967C49.3926 121.738 51.2546 121.623 53.1738 121.623C54.1335 121.623 55.1719 121.673 56.2891 121.773C57.4062 121.874 58.5163 122.074 59.6191 122.375C60.7363 122.676 61.8034 123.098 62.8203 123.643C63.8516 124.173 64.7611 124.874 65.5488 125.748C66.3509 126.622 66.9883 127.696 67.4609 128.971C67.9336 130.231 68.1699 131.728 68.1699 133.461ZM50.3164 126.156C50.3164 127.517 50.3164 128.849 50.3164 130.152C50.3307 131.441 50.3522 132.73 50.3809 134.02C50.4095 135.294 50.4453 136.583 50.4883 137.887C50.5456 139.19 50.6172 140.529 50.7031 141.904H51.498C52.7585 141.904 54.026 141.868 55.3008 141.797C56.5755 141.711 57.7858 141.568 58.9316 141.367C59.1322 140.594 59.2754 139.62 59.3613 138.445C59.4616 137.271 59.5117 136.018 59.5117 134.686C59.5117 133.855 59.4902 133.017 59.4473 132.172C59.4043 131.327 59.347 130.518 59.2754 129.744C59.2038 128.971 59.1035 128.255 58.9746 127.596C58.86 126.923 58.7311 126.35 58.5879 125.877C58.3874 125.848 58.151 125.827 57.8789 125.812C57.6211 125.798 57.3275 125.791 56.998 125.791C56.3392 125.791 55.623 125.812 54.8496 125.855C54.0905 125.898 53.3672 125.941 52.6797 125.984C51.8919 126.042 51.1042 126.099 50.3164 126.156ZM88.5156 127.295C86.668 127.209 84.8346 127.166 83.0156 127.166H82.8867C82.8867 127.768 82.8796 128.613 82.8652 129.701C82.8652 130.775 82.8652 131.986 82.8652 133.332C82.8652 134.664 82.8581 136.075 82.8438 137.564C82.8294 139.054 82.8223 140.501 82.8223 141.904C82.8223 143.308 82.8151 144.618 82.8008 145.836C82.8008 147.039 82.8008 148.042 82.8008 148.844H87.5059V154.258H69.7168V148.844H73.541C73.5697 148.099 73.5983 147.197 73.627 146.137C73.6699 145.077 73.7129 143.931 73.7559 142.699C73.7988 141.467 73.8418 140.178 73.8848 138.832C73.9421 137.486 73.985 136.146 74.0137 134.814C74.0566 133.468 74.0924 132.165 74.1211 130.904C74.1497 129.644 74.1641 128.484 74.1641 127.424C73.4766 127.452 72.7962 127.488 72.123 127.531C71.4499 127.56 70.7695 127.596 70.082 127.639C70.125 127.023 70.1608 126.45 70.1895 125.92C70.2324 125.376 70.2539 124.839 70.2539 124.309C70.2539 123.893 70.2396 123.478 70.2109 123.062C70.1966 122.633 70.1536 122.167 70.082 121.666C71.1133 121.738 72.2806 121.788 73.584 121.816C74.8874 121.831 76.2266 121.838 77.6016 121.838C78.9766 121.838 80.3086 121.831 81.5977 121.816C82.901 121.802 84.0684 121.781 85.0996 121.752C86.3027 121.723 87.4414 121.695 88.5156 121.666V127.295ZM123.6 120.871C123.113 125.168 122.683 129.379 122.311 133.504C122.153 135.266 121.995 137.092 121.838 138.982C121.68 140.873 121.537 142.742 121.408 144.59C121.279 146.438 121.172 148.228 121.086 149.961C121 151.68 120.957 153.248 120.957 154.666C119.883 154.781 118.866 154.859 117.906 154.902C116.961 154.945 116.001 154.967 115.027 154.967C114.526 154.967 114.003 154.96 113.459 154.945C112.915 154.931 112.349 154.91 111.762 154.881L99.5801 129.852C99.5944 130.84 99.6087 131.95 99.623 133.182C99.6517 134.413 99.6803 135.702 99.709 137.049C99.7376 138.381 99.7663 139.742 99.7949 141.131C99.8379 142.52 99.8737 143.859 99.9023 145.148C99.9596 148.185 100.031 151.3 100.117 154.494C99.2435 154.494 98.3411 154.508 97.4102 154.537C96.6081 154.566 95.7129 154.602 94.7246 154.645C93.7507 154.702 92.7767 154.781 91.8027 154.881C91.903 153.449 91.9889 151.83 92.0605 150.025C92.1322 148.206 92.1895 146.301 92.2324 144.311C92.2897 142.305 92.3327 140.271 92.3613 138.209C92.39 136.146 92.4043 134.148 92.4043 132.215C92.4043 130.21 92.3828 128.34 92.3398 126.607C92.3112 124.874 92.2754 123.399 92.2324 122.182C93.3926 122.268 94.5026 122.332 95.5625 122.375C96.6224 122.404 97.6823 122.418 98.7422 122.418C99.8164 122.418 100.891 122.404 101.965 122.375C103.053 122.332 104.192 122.268 105.381 122.182C106.025 124.001 106.742 125.748 107.529 127.424C108.317 129.1 109.126 130.761 109.957 132.408C110.802 134.041 111.647 135.688 112.492 137.35C113.337 138.997 114.154 140.701 114.941 142.463C114.941 141.518 114.949 140.486 114.963 139.369C114.992 138.252 115.02 137.099 115.049 135.91C115.077 134.721 115.106 133.525 115.135 132.322C115.163 131.119 115.199 129.959 115.242 128.842C115.314 126.235 115.407 123.578 115.521 120.871C116.309 120.943 117.004 121 117.605 121.043C118.221 121.072 118.83 121.086 119.432 121.086C120.033 121.086 120.656 121.072 121.301 121.043C121.945 121 122.712 120.943 123.6 120.871ZM146.996 148.715C147.283 147.211 147.49 145.635 147.619 143.988C147.762 142.327 147.834 140.637 147.834 138.918C147.834 137.099 147.762 135.294 147.619 133.504C147.476 131.699 147.268 129.966 146.996 128.305C146.194 128.076 145.32 127.875 144.375 127.703C143.559 127.546 142.606 127.402 141.518 127.273C140.443 127.145 139.276 127.08 138.016 127.08C137.772 127.08 137.521 127.08 137.264 127.08C137.006 127.08 136.748 127.094 136.49 127.123C136.49 127.367 136.49 127.782 136.49 128.369C136.49 128.956 136.49 129.68 136.49 130.539C136.505 131.384 136.512 132.344 136.512 133.418C136.526 134.478 136.54 135.595 136.555 136.77C136.569 137.944 136.59 139.147 136.619 140.379C136.648 141.611 136.684 142.828 136.727 144.031C136.77 145.234 136.812 146.395 136.855 147.512C136.913 148.615 136.977 149.632 137.049 150.562C138.367 150.505 139.62 150.376 140.809 150.176C142.012 149.975 143.072 149.768 143.988 149.553C145.062 149.295 146.065 149.016 146.996 148.715ZM134.191 121.924C135.882 121.924 137.615 122.01 139.391 122.182C141.181 122.354 142.914 122.661 144.59 123.105C146.28 123.549 147.877 124.158 149.381 124.932C150.885 125.705 152.195 126.686 153.312 127.875C154.444 129.064 155.339 130.496 155.998 132.172C156.657 133.833 156.986 135.788 156.986 138.037C156.986 140.214 156.7 142.148 156.127 143.838C155.554 145.528 154.773 147.018 153.785 148.307C152.811 149.581 151.665 150.663 150.348 151.551C149.03 152.439 147.619 153.162 146.115 153.721C144.626 154.279 143.079 154.68 141.475 154.924C139.87 155.182 138.295 155.311 136.748 155.311C135.244 155.311 133.919 155.275 132.773 155.203C131.628 155.146 130.654 155.081 129.852 155.01C128.921 154.924 128.111 154.824 127.424 154.709C127.596 151.902 127.746 149.102 127.875 146.309C128.004 143.516 128.068 140.708 128.068 137.887C128.068 136.497 128.047 135.173 128.004 133.912C127.975 132.652 127.932 131.406 127.875 130.174C127.818 128.942 127.746 127.703 127.66 126.457C127.589 125.197 127.51 123.865 127.424 122.461C128.613 122.232 129.78 122.089 130.926 122.031C132.072 121.96 133.16 121.924 134.191 121.924ZM180.512 148.93C180.598 148.07 180.676 147.125 180.748 146.094C180.82 145.062 180.877 144.01 180.92 142.936C180.963 141.861 180.992 140.809 181.006 139.777C181.035 138.732 181.049 137.779 181.049 136.92C181.049 135.273 181.006 133.561 180.92 131.785C180.834 129.995 180.698 128.276 180.512 126.629C180.297 126.615 180.039 126.6 179.738 126.586C179.438 126.572 179.122 126.564 178.793 126.564C178.478 126.55 178.17 126.543 177.869 126.543C177.568 126.543 177.311 126.543 177.096 126.543C176.451 126.543 175.764 126.557 175.033 126.586C174.317 126.615 173.587 126.665 172.842 126.736C172.097 126.794 171.359 126.872 170.629 126.973C169.913 127.059 169.232 127.166 168.588 127.295C168.588 127.61 168.581 128.018 168.566 128.52C168.566 129.007 168.566 129.515 168.566 130.045C168.566 130.561 168.559 131.062 168.545 131.549C168.545 132.021 168.545 132.408 168.545 132.709C168.545 135.387 168.631 138.109 168.803 140.873C168.989 143.637 169.261 146.323 169.619 148.93C169.977 148.987 170.378 149.037 170.822 149.08C171.281 149.123 171.746 149.159 172.219 149.188C172.691 149.202 173.157 149.216 173.615 149.23C174.074 149.245 174.482 149.252 174.84 149.252C175.241 149.252 175.685 149.245 176.172 149.23C176.659 149.216 177.153 149.202 177.654 149.188C178.156 149.159 178.65 149.123 179.137 149.08C179.638 149.037 180.096 148.987 180.512 148.93ZM190.996 138.467C190.996 140.816 190.602 143 189.814 145.02C189.027 147.039 187.91 148.794 186.463 150.283C185.016 151.758 183.276 152.926 181.242 153.785C179.223 154.63 176.974 155.053 174.496 155.053C173.422 155.053 172.305 154.924 171.145 154.666C169.984 154.423 168.846 154.021 167.729 153.463C166.611 152.89 165.544 152.152 164.527 151.25C163.525 150.348 162.644 149.245 161.885 147.941C161.126 146.638 160.517 145.12 160.059 143.387C159.615 141.654 159.393 139.677 159.393 137.457C159.393 135.28 159.643 133.375 160.145 131.742C160.66 130.109 161.333 128.713 162.164 127.553C162.995 126.378 163.947 125.411 165.021 124.652C166.11 123.893 167.227 123.292 168.373 122.848C169.519 122.404 170.65 122.096 171.768 121.924C172.885 121.752 173.909 121.666 174.84 121.666C176.286 121.666 177.683 121.802 179.029 122.074C180.39 122.332 181.665 122.747 182.854 123.32C184.042 123.879 185.131 124.602 186.119 125.49C187.107 126.378 187.96 127.445 188.676 128.691C189.392 129.938 189.951 131.37 190.352 132.988C190.767 134.607 190.982 136.433 190.996 138.467ZM220.838 132.58C220.838 133.697 220.659 134.736 220.301 135.695C219.943 136.641 219.427 137.514 218.754 138.316C218.081 139.104 217.264 139.82 216.305 140.465C215.345 141.109 214.264 141.675 213.061 142.162L222.557 153.914L212.609 155.01L206.357 144.053C205.913 144.139 205.455 144.217 204.982 144.289C204.51 144.361 204.03 144.432 203.543 144.504C203.658 145.979 203.794 147.519 203.951 149.123C204.123 150.727 204.309 152.439 204.51 154.258L194.348 154.967C194.634 151.286 194.856 147.626 195.014 143.988C195.186 140.336 195.271 136.662 195.271 132.967C195.271 132.007 195.264 131.133 195.25 130.346C195.25 129.558 195.236 128.792 195.207 128.047C195.193 127.302 195.164 126.536 195.121 125.748C195.078 124.96 195.028 124.079 194.971 123.105C196.704 122.576 198.465 122.196 200.256 121.967C202.061 121.738 203.923 121.623 205.842 121.623C206.801 121.623 207.84 121.688 208.957 121.816C210.074 121.945 211.184 122.167 212.287 122.482C213.404 122.798 214.471 123.22 215.488 123.75C216.52 124.28 217.429 124.953 218.217 125.77C219.019 126.586 219.656 127.553 220.129 128.67C220.602 129.787 220.838 131.09 220.838 132.58ZM202.984 126.156C202.984 128.505 202.999 130.775 203.027 132.967C203.07 135.144 203.156 137.385 203.285 139.691H204.166C205.426 139.691 206.694 139.656 207.969 139.584C209.243 139.512 210.454 139.376 211.6 139.176C211.8 138.402 211.943 137.521 212.029 136.533C212.13 135.531 212.18 134.492 212.18 133.418C212.18 132.73 212.158 132.043 212.115 131.355C212.072 130.654 212.015 129.98 211.943 129.336C211.872 128.677 211.771 128.054 211.643 127.467C211.528 126.88 211.399 126.35 211.256 125.877C211.055 125.848 210.819 125.827 210.547 125.812C210.289 125.798 209.995 125.791 209.666 125.791C209.007 125.791 208.291 125.812 207.518 125.855C206.758 125.898 206.035 125.941 205.348 125.984C204.56 126.042 203.772 126.099 202.984 126.156ZM251.926 155.311C250.866 155.167 249.935 155.038 249.133 154.924C248.345 154.824 247.6 154.738 246.898 154.666C246.211 154.609 245.538 154.566 244.879 154.537C244.22 154.508 243.504 154.494 242.73 154.494C243.103 153.248 243.418 151.973 243.676 150.67C243.948 149.367 244.163 148.027 244.32 146.652C243.461 146.624 242.58 146.602 241.678 146.588C240.775 146.574 239.88 146.566 238.992 146.566C237.173 146.566 235.426 146.609 233.75 146.695C233.822 147.984 233.922 149.273 234.051 150.562C234.18 151.837 234.344 153.112 234.545 154.387C233.528 154.458 232.618 154.523 231.816 154.58C231.014 154.637 230.305 154.688 229.689 154.73C229.074 154.788 228.544 154.838 228.1 154.881C227.656 154.938 227.276 154.988 226.961 155.031C226.23 155.132 225.736 155.225 225.479 155.311C225.292 154.38 225.135 153.398 225.006 152.367C224.891 151.336 224.798 150.312 224.727 149.295C224.669 148.264 224.626 147.261 224.598 146.287C224.569 145.313 224.555 144.411 224.555 143.58C224.555 141.847 224.619 140.107 224.748 138.359C224.891 136.612 225.149 134.929 225.521 133.311C225.908 131.692 226.438 130.188 227.111 128.799C227.785 127.395 228.665 126.178 229.754 125.146C230.842 124.101 232.16 123.285 233.707 122.697C235.254 122.096 237.087 121.795 239.207 121.795C241.384 121.795 243.382 122.132 245.201 122.805C247.02 123.464 248.581 124.488 249.885 125.877C251.202 127.266 252.219 129.035 252.936 131.184C253.666 133.318 254.031 135.86 254.031 138.811C254.031 139.57 254.01 140.515 253.967 141.646C253.938 142.778 253.852 144.053 253.709 145.471C253.566 146.889 253.351 148.436 253.064 150.111C252.792 151.773 252.413 153.506 251.926 155.311ZM237.488 141.109C238.734 141.109 239.973 141.088 241.205 141.045C242.451 140.988 243.633 140.895 244.75 140.766C244.779 140.436 244.793 140.107 244.793 139.777C244.793 139.434 244.793 139.083 244.793 138.725C244.793 136.548 244.693 134.449 244.492 132.43C244.306 130.41 244.027 128.534 243.654 126.801C243.325 126.772 242.96 126.751 242.559 126.736C242.172 126.722 241.757 126.715 241.312 126.715C240.725 126.715 240.117 126.729 239.486 126.758C238.87 126.772 238.262 126.801 237.66 126.844C237.073 126.872 236.507 126.915 235.963 126.973C235.419 127.03 234.946 127.094 234.545 127.166C234.23 129.443 233.993 131.735 233.836 134.041C233.693 136.333 233.621 138.66 233.621 141.023C234.237 141.066 234.867 141.095 235.512 141.109C236.171 141.109 236.829 141.109 237.488 141.109ZM288.342 154.752C288.285 154.423 288.206 153.821 288.105 152.947C288.005 152.074 287.891 151.042 287.762 149.854C287.647 148.665 287.518 147.361 287.375 145.943C287.232 144.525 287.096 143.1 286.967 141.668C286.637 138.316 286.294 134.621 285.936 130.582L281.23 154.172L272.035 154.752C271.262 151.572 270.531 148.493 269.844 145.514C269.543 144.253 269.235 142.95 268.92 141.604C268.619 140.243 268.318 138.918 268.018 137.629C267.731 136.326 267.459 135.087 267.201 133.912C266.958 132.738 266.75 131.692 266.578 130.775C266.521 131.549 266.442 132.487 266.342 133.59C266.256 134.678 266.156 135.86 266.041 137.135C265.941 138.395 265.826 139.706 265.697 141.066C265.583 142.427 265.461 143.759 265.332 145.062C265.046 148.128 264.738 151.357 264.408 154.752H256.803C257.648 149.438 258.378 144.139 258.994 138.854C259.624 133.568 260.097 128.204 260.412 122.762L272.916 122.096L278.008 145.428C278.624 142.492 279.204 139.613 279.748 136.791C279.977 135.588 280.206 134.335 280.436 133.031C280.679 131.728 280.901 130.439 281.102 129.164C281.302 127.875 281.488 126.629 281.66 125.426C281.832 124.223 281.968 123.113 282.068 122.096H293.949C294.236 127.367 294.644 132.637 295.174 137.908C295.704 143.179 296.377 148.514 297.193 153.914L288.342 154.752ZM327.465 155.311C326.405 155.167 325.474 155.038 324.672 154.924C323.884 154.824 323.139 154.738 322.438 154.666C321.75 154.609 321.077 154.566 320.418 154.537C319.759 154.508 319.043 154.494 318.27 154.494C318.642 153.248 318.957 151.973 319.215 150.67C319.487 149.367 319.702 148.027 319.859 146.652C319 146.624 318.119 146.602 317.217 146.588C316.314 146.574 315.419 146.566 314.531 146.566C312.712 146.566 310.965 146.609 309.289 146.695C309.361 147.984 309.461 149.273 309.59 150.562C309.719 151.837 309.883 153.112 310.084 154.387C309.067 154.458 308.158 154.523 307.355 154.58C306.553 154.637 305.844 154.688 305.229 154.73C304.613 154.788 304.083 154.838 303.639 154.881C303.195 154.938 302.815 154.988 302.5 155.031C301.77 155.132 301.275 155.225 301.018 155.311C300.831 154.38 300.674 153.398 300.545 152.367C300.43 151.336 300.337 150.312 300.266 149.295C300.208 148.264 300.165 147.261 300.137 146.287C300.108 145.313 300.094 144.411 300.094 143.58C300.094 141.847 300.158 140.107 300.287 138.359C300.43 136.612 300.688 134.929 301.061 133.311C301.447 131.692 301.977 130.188 302.65 128.799C303.324 127.395 304.204 126.178 305.293 125.146C306.382 124.101 307.699 123.285 309.246 122.697C310.793 122.096 312.626 121.795 314.746 121.795C316.923 121.795 318.921 122.132 320.74 122.805C322.559 123.464 324.12 124.488 325.424 125.877C326.742 127.266 327.758 129.035 328.475 131.184C329.205 133.318 329.57 135.86 329.57 138.811C329.57 139.57 329.549 140.515 329.506 141.646C329.477 142.778 329.391 144.053 329.248 145.471C329.105 146.889 328.89 148.436 328.604 150.111C328.331 151.773 327.952 153.506 327.465 155.311ZM313.027 141.109C314.273 141.109 315.512 141.088 316.744 141.045C317.99 140.988 319.172 140.895 320.289 140.766C320.318 140.436 320.332 140.107 320.332 139.777C320.332 139.434 320.332 139.083 320.332 138.725C320.332 136.548 320.232 134.449 320.031 132.43C319.845 130.41 319.566 128.534 319.193 126.801C318.864 126.772 318.499 126.751 318.098 126.736C317.711 126.722 317.296 126.715 316.852 126.715C316.264 126.715 315.656 126.729 315.025 126.758C314.41 126.772 313.801 126.801 313.199 126.844C312.612 126.872 312.046 126.915 311.502 126.973C310.958 127.03 310.485 127.094 310.084 127.166C309.769 129.443 309.533 131.735 309.375 134.041C309.232 136.333 309.16 138.66 309.16 141.023C309.776 141.066 310.406 141.095 311.051 141.109C311.71 141.109 312.368 141.109 313.027 141.109Z" fill="#AD7145" fill-opacity="0.98"/>
<path d="M95.44 113.88C95.28 113.88 95.12 113.8 94.96 113.64L94.54 113.52L94.42 113.58L94.54 113.4C94.54 113.28 94.46 113.22 94.3 113.22C94.14 113.22 94.02 113.22 93.94 113.22C93.98 112.94 93.82 112.8 93.46 112.8C93.14 112.8 93 112.72 93.04 112.56L92.8 112.5C92.76 112.3 92.64 112.12 92.44 111.96C92.52 111.88 92.54 111.78 92.5 111.66C92.46 111.58 92.44 111.52 92.44 111.48C92.36 111.48 92.28 111.44 92.2 111.36L92.14 111.18C92.06 111.18 91.94 111.14 91.78 111.06C91.78 110.98 91.76 110.9 91.72 110.82C91.72 110.74 91.72 110.68 91.72 110.64H91.66C91.62 110.48 91.56 110.4 91.48 110.4C91.44 110.4 91.38 110.38 91.3 110.34C91.22 110.02 91.2 109.78 91.24 109.62C91.28 109.46 91.28 109.24 91.24 108.96L91.3 108.84C91.5 108.48 91.6 108.3 91.6 108.3C91.72 108.3 91.82 108.42 91.9 108.66C91.98 108.9 92.06 109.08 92.14 109.2C92.18 109.24 92.24 109.28 92.32 109.32C92.4 109.36 92.42 109.4 92.38 109.44L92.32 109.68L92.44 109.62C92.44 109.78 92.48 109.9 92.56 109.98C92.6 110.14 92.68 110.4 92.8 110.76C92.92 111.08 93.12 111.22 93.4 111.18C93.4 111.3 93.46 111.42 93.58 111.54C93.74 111.66 93.88 111.7 94 111.66C94.04 111.74 94.14 111.8 94.3 111.84C94.46 111.88 94.58 111.92 94.66 111.96C94.86 111.92 95.06 111.9 95.26 111.9C95.5 111.94 95.72 111.94 95.92 111.9L97.24 111.66C97.28 111.62 97.48 111.52 97.84 111.36C98.2 111.2 98.46 111.04 98.62 110.88H98.68C98.88 110.88 99.08 110.84 99.28 110.76C99.52 110.64 99.72 110.54 99.88 110.46C100 110.42 100.1 110.36 100.18 110.28C100.26 110.16 100.36 110.08 100.48 110.04L101.02 109.74C101.14 109.66 101.26 109.64 101.38 109.68C101.54 109.68 101.68 109.6 101.8 109.44C101.92 109.36 102.02 109.26 102.1 109.14C102.22 109.02 102.32 108.92 102.4 108.84H102.58C102.7 108.64 102.78 108.48 102.82 108.36L103.96 107.94C104.04 107.86 104.1 107.78 104.14 107.7C104.22 107.58 104.28 107.48 104.32 107.4C104.4 107.32 104.5 107.26 104.62 107.22C104.74 107.14 104.8 107.02 104.8 106.86C105 106.78 105.18 106.68 105.34 106.56C105.54 106.44 105.68 106.3 105.76 106.14C105.84 106.1 106.08 105.92 106.48 105.6C106.88 105.24 107.34 104.84 107.86 104.4C108.38 103.96 108.84 103.58 109.24 103.26C109.64 102.9 109.86 102.7 109.9 102.66L110.14 102.42L108.28 101.7C107.24 101.3 106.16 100.98 105.04 100.74C103.96 100.46 102.78 100.26 101.5 100.14C101.22 100.1 101.02 100.02 100.9 99.9C100.82 99.74 100.78 99.46 100.78 99.06C100.78 98.54 100.98 98.2 101.38 98.04C101.78 97.84 102.24 97.74 102.76 97.74C103.32 97.74 103.76 97.78 104.08 97.86C104.44 97.94 104.94 98 105.58 98.04C105.66 98.04 105.96 98.1 106.48 98.22C107 98.3 107.56 98.38 108.16 98.46C108.24 98.46 108.56 98.48 109.12 98.52C109.72 98.56 110.24 98.58 110.68 98.58C111.2 98.54 111.74 98.52 112.3 98.52C112.86 98.52 113.42 98.52 113.98 98.52L114.94 97.44C115.3 97.04 115.64 96.64 115.96 96.24C116.32 95.84 116.7 95.46 117.1 95.1C117.22 94.98 117.34 94.88 117.46 94.8C117.62 94.72 117.76 94.6 117.88 94.44L118.42 93.78C118.5 93.7 118.58 93.64 118.66 93.6C118.78 93.56 118.86 93.52 118.9 93.48C119.06 93.32 119.2 93.14 119.32 92.94C119.44 92.74 119.54 92.56 119.62 92.4C119.7 92.4 119.84 92.28 120.04 92.04C120.24 91.8 120.36 91.64 120.4 91.56C120.6 91.48 120.74 91.36 120.82 91.2C120.94 91 121.04 90.8 121.12 90.6C121.24 90.52 121.36 90.44 121.48 90.36C121.64 90.24 121.76 90.12 121.84 90C121.92 89.88 121.98 89.74 122.02 89.58C122.1 89.42 122.22 89.32 122.38 89.28C122.5 88.96 122.76 88.6 123.16 88.2C123.6 87.76 123.84 87.46 123.88 87.3C124.08 87.26 124.26 87.14 124.42 86.94C124.58 86.7 124.74 86.54 124.9 86.46C125.06 86.02 125.36 85.64 125.8 85.32C126.24 84.96 126.48 84.58 126.52 84.18C126.56 84.1 126.62 84.04 126.7 84C126.78 83.96 126.84 83.92 126.88 83.88C127 83.8 127.08 83.7 127.12 83.58C127.2 83.42 127.3 83.28 127.42 83.16C127.46 83.08 127.5 83.02 127.54 82.98C127.62 82.94 127.68 82.9 127.72 82.86C127.68 82.86 127.54 82.82 127.3 82.74C127.22 82.74 127.06 82.74 126.82 82.74C126.58 82.7 126.32 82.68 126.04 82.68C125.12 82.68 124.5 82.72 124.18 82.8C123.42 82.84 122.76 82.9 122.2 82.98C121.68 83.06 121.06 83.2 120.34 83.4C120.34 83.4 120.32 83.38 120.28 83.34C120.24 83.3 120.2 83.28 120.16 83.28L120.1 83.22C119.98 83.18 119.96 83.2 120.04 83.28C120.12 83.36 120.1 83.42 119.98 83.46C119.74 83.5 119.46 83.56 119.14 83.64C118.86 83.72 118.6 83.76 118.36 83.76C118.24 83.8 118.12 83.82 118 83.82C117.88 83.78 117.76 83.76 117.64 83.76C117.24 83.8 116.84 83.94 116.44 84.18C116.08 84.38 115.7 84.52 115.3 84.6L114.58 84.78C114.3 84.86 114.08 84.94 113.92 85.02C113.8 85.06 113.58 85.12 113.26 85.2L112.72 85.38C112.6 85.42 112.46 85.46 112.3 85.5C112.18 85.54 112.04 85.58 111.88 85.62C111.56 85.74 111.22 85.88 110.86 86.04C110.54 86.2 110.22 86.32 109.9 86.4L108.82 86.7C108.7 86.74 108.52 86.76 108.28 86.76C107.96 86.76 107.74 86.72 107.62 86.64C107.46 86.56 107.26 86.34 107.02 85.98C106.82 85.58 106.74 85.3 106.78 85.14C107.02 84.78 107.5 84.5 108.22 84.3C108.98 84.06 109.46 83.92 109.66 83.88C109.7 83.84 109.88 83.78 110.2 83.7C110.56 83.58 110.9 83.48 111.22 83.4C111.54 83.32 111.7 83.32 111.7 83.4C111.74 83.44 111.52 83.6 111.04 83.88C110.56 84.12 110.3 84.26 110.26 84.3C110.26 84.34 110.22 84.4 110.14 84.48C110.1 84.56 110.1 84.58 110.14 84.54L111.52 84.18C111.6 84.14 111.76 84.12 112 84.12H112.42C112.7 84.12 112.88 84.08 112.96 84C113.04 83.84 113.12 83.76 113.2 83.76C113.4 83.68 113.7 83.62 114.1 83.58C114.54 83.5 114.82 83.42 114.94 83.34C115.14 83.3 115.36 83.28 115.6 83.28C115.84 83.24 116.06 83.18 116.26 83.1C116.38 83.06 116.78 82.98 117.46 82.86C118.18 82.74 118.9 82.62 119.62 82.5C120.34 82.38 120.74 82.32 120.82 82.32H120.88C121.08 82.32 121.28 82.3 121.48 82.26C121.68 82.18 121.8 82.26 121.84 82.5C121.88 82.5 121.9 82.52 121.9 82.56C121.9 82.56 121.92 82.56 121.96 82.56C122.2 82.56 122.42 82.46 122.62 82.26C122.7 82.22 122.9 82.18 123.22 82.14C123.54 82.1 123.74 82.08 123.82 82.08C124.14 82.04 124.4 82.02 124.6 82.02C124.8 82.02 124.98 82.02 125.14 82.02C125.46 82.02 125.74 82.04 125.98 82.08C126.26 82.08 126.6 82.1 127 82.14C127.16 82.18 127.36 82.2 127.6 82.2C127.88 82.2 128.12 82.22 128.32 82.26L128.56 81.96C128.84 81.8 129.08 81.72 129.28 81.72C129.44 81.72 129.52 81.8 129.52 81.96C129.52 82.4 129.3 82.8 128.86 83.16C128.82 83.2 128.72 83.26 128.56 83.34C128.4 83.38 128.3 83.44 128.26 83.52C128.06 84.04 127.66 84.52 127.06 84.96C126.5 85.4 126.2 85.72 126.16 85.92C126 86 125.82 86.12 125.62 86.28C125.42 86.44 125.3 86.6 125.26 86.76C125.06 87 124.9 87.26 124.78 87.54C124.66 87.78 124.48 88.02 124.24 88.26C124.12 88.38 123.92 88.62 123.64 88.98C123.36 89.34 123.08 89.7 122.8 90.06C122.52 90.38 122.32 90.54 122.2 90.54C122.08 90.66 122.02 90.74 122.02 90.78C122.06 90.82 121.98 90.9 121.78 91.02C121.58 91.22 121.42 91.44 121.3 91.68C121.06 91.72 120.86 91.88 120.7 92.16C120.58 92.4 120.46 92.62 120.34 92.82C120.18 93.02 120 93.2 119.8 93.36C119.64 93.52 119.48 93.7 119.32 93.9C119.16 93.94 118.98 94.12 118.78 94.44C118.62 94.72 118.5 94.92 118.42 95.04C118.18 95.32 117.96 95.54 117.76 95.7C117.6 95.86 117.52 96.14 117.52 96.54C117.44 96.62 117.32 96.74 117.16 96.9C117 97.06 116.9 97.2 116.86 97.32C116.78 97.48 116.66 97.62 116.5 97.74C116.38 97.86 116.28 98 116.2 98.16L116.02 98.28L115.96 98.4C116.44 98.4 116.92 98.4 117.4 98.4C117.88 98.4 118.34 98.38 118.78 98.34L120.76 98.22C120.84 98.22 120.96 98.28 121.12 98.4C121.32 98.48 121.44 98.5 121.48 98.46C121.6 98.46 121.64 98.4 121.6 98.28C121.56 98.12 121.62 98.04 121.78 98.04C122.14 98 122.58 97.96 123.1 97.92C123.66 97.84 124.2 97.74 124.72 97.62L125.26 95.94L125.8 94.2C125.88 93.92 126 93.74 126.16 93.66C126.32 93.58 126.42 93.46 126.46 93.3C126.5 93.22 126.46 93.16 126.34 93.12C126.22 93.04 126.22 92.92 126.34 92.76C126.7 91.64 127.16 90.52 127.72 89.4C128.28 88.28 128.76 87.26 129.16 86.34V86.28C129.28 86.12 129.38 86 129.46 85.92C129.58 85.84 129.66 85.74 129.7 85.62C129.66 85.58 129.66 85.54 129.7 85.5C129.74 85.46 129.72 85.42 129.64 85.38C129.92 85.1 130.08 84.74 130.12 84.3L130.72 83.04L131.62 81.6C131.66 81.48 131.76 81.34 131.92 81.18C132.24 80.82 132.52 80.64 132.76 80.64C133.12 80.64 133.14 80.86 132.82 81.3L132.7 81.6L132.28 82.14L132.04 82.8C131.64 83.52 131.26 84.3 130.9 85.14C130.54 85.98 130.14 86.86 129.7 87.78V88.02C129.7 88.22 129.64 88.36 129.52 88.44C129.44 88.52 129.28 88.6 129.04 88.68C129.16 88.92 129.18 89.18 129.1 89.46L128.68 90.66C128.52 91.06 128.3 91.54 128.02 92.1C127.74 92.66 127.58 93.1 127.54 93.42C127.14 94.7 126.84 95.92 126.64 97.08C126.76 97.04 126.88 97 127 96.96C127.12 96.92 127.22 96.88 127.3 96.84C127.5 96.76 127.64 96.72 127.72 96.72C127.84 96.72 128 96.7 128.2 96.66C128.44 96.58 128.68 96.48 128.92 96.36C129.04 96.28 129.2 96.24 129.4 96.24C129.6 96.24 129.7 96.3 129.7 96.42C129.7 96.58 129.52 96.76 129.16 96.96L127.9 97.68C127.58 97.76 127.32 97.8 127.12 97.8C127.04 97.8 126.84 97.84 126.52 97.92L126.28 99.3L126.34 100.2C126.3 100.32 126.12 100.38 125.8 100.38C125.52 100.38 125.48 100.56 125.68 100.92C125.84 101.12 125.94 101.26 125.98 101.34C126.02 101.38 126 101.56 125.92 101.88C125.76 102.36 125.62 103 125.5 103.8C125.42 104.6 125.36 105.26 125.32 105.78C125.32 105.82 125.28 105.92 125.2 106.08C125.16 106.24 125.12 106.36 125.08 106.44C125.08 106.48 125.1 106.5 125.14 106.5C125.22 106.5 125.26 106.54 125.26 106.62C125.34 107.46 125.34 108.24 125.26 108.96L125.14 110.34C125.14 110.38 125.1 110.46 125.02 110.58C124.94 110.7 124.92 110.8 124.96 110.88C124.84 111.32 124.62 111.62 124.3 111.78C123.98 111.98 123.66 112.08 123.34 112.08C122.74 112.08 122.34 111.98 122.14 111.78L121.84 111.54V110.22C121.6 110.02 121.36 109.82 121.12 109.62C120.88 109.42 120.64 109.24 120.4 109.08C119.96 108.76 119.52 108.48 119.08 108.24C118.68 107.96 118.26 107.66 117.82 107.34C117.34 106.98 116.86 106.6 116.38 106.2C115.94 105.8 115.46 105.42 114.94 105.06C114.38 104.66 113.8 104.3 113.2 103.98C112.6 103.62 112 103.3 111.4 103.02C111.24 103.18 110.94 103.48 110.5 103.92C110.06 104.32 109.64 104.72 109.24 105.12C108.84 105.48 108.6 105.68 108.52 105.72C108.48 105.8 108.42 105.88 108.34 105.96C108.3 106.04 108.24 106.12 108.16 106.2C108.08 106.24 107.96 106.3 107.8 106.38C107.68 106.46 107.62 106.54 107.62 106.62C107.54 106.7 107.42 106.78 107.26 106.86C107.14 106.9 107.06 107 107.02 107.16L107.08 107.22C106.92 107.26 106.84 107.3 106.84 107.34C106.88 107.38 106.9 107.46 106.9 107.58C106.86 107.62 106.72 107.7 106.48 107.82C106.28 107.94 106.14 108.02 106.06 108.06C105.7 108.26 105.44 108.42 105.28 108.54C105.16 108.66 105 108.9 104.8 109.26C104.68 109.34 104.42 109.5 104.02 109.74C103.62 109.98 103.42 110.14 103.42 110.22C103.26 110.26 103.16 110.34 103.12 110.46C103.08 110.58 103.02 110.68 102.94 110.76C102.9 110.84 102.82 110.9 102.7 110.94C102.58 110.98 102.5 111.06 102.46 111.18L102.34 111.24H102.28C102.16 111.24 102.04 111.3 101.92 111.42C101.84 111.54 101.76 111.64 101.68 111.72C101.24 111.76 100.9 111.88 100.66 112.08C100.46 112.32 100.18 112.52 99.82 112.68C99.34 112.88 98.84 113.08 98.32 113.28C97.8 113.48 97.26 113.62 96.7 113.7C96.54 113.78 96.42 113.84 96.34 113.88C96.3 113.96 96.18 113.96 95.98 113.88C96.06 113.76 96.04 113.7 95.92 113.7C95.76 113.82 95.6 113.88 95.44 113.88ZM121.96 109.44V109.26C121.96 109.14 122.02 109.02 122.14 108.9C122.1 108.82 122.06 108.78 122.02 108.78C122.02 108.74 122.02 108.7 122.02 108.66L123.28 102.72C123.44 102 123.62 101.28 123.82 100.56C124.06 99.8 124.3 99.04 124.54 98.28C124.46 98.32 124.38 98.34 124.3 98.34C124.1 98.38 123.94 98.4 123.82 98.4C123.7 98.4 123.5 98.44 123.22 98.52C122.82 98.6 122.36 98.72 121.84 98.88C121.36 99.04 120.84 99.14 120.28 99.18C119.88 99.22 119.56 99.22 119.32 99.18C119.12 99.14 118.82 99.14 118.42 99.18C118.22 99.22 117.9 99.28 117.46 99.36C117.02 99.4 116.68 99.42 116.44 99.42L114.58 99.66C114.58 99.66 114.56 99.68 114.52 99.72C114.52 99.76 114.52 99.8 114.52 99.84C114.44 99.92 114.28 100.06 114.04 100.26C113.84 100.42 113.72 100.58 113.68 100.74L113.5 100.8C113.46 100.84 113.38 100.94 113.26 101.1C113.18 101.22 113.12 101.32 113.08 101.4C112.92 101.44 112.78 101.54 112.66 101.7C112.54 101.86 112.44 102.02 112.36 102.18C112.2 102.18 112.08 102.22 112 102.3C112.96 102.82 113.82 103.34 114.58 103.86C114.74 103.98 114.86 104.1 114.94 104.22C115.02 104.34 115.14 104.46 115.3 104.58C115.66 104.82 116 105.02 116.32 105.18C116.68 105.3 117 105.48 117.28 105.72L120.94 108.48C121.06 108.56 121.22 108.7 121.42 108.9C121.62 109.06 121.8 109.24 121.96 109.44ZM110.86 101.7C111.18 101.38 111.5 101.06 111.82 100.74C112.14 100.42 112.46 100.1 112.78 99.78L107.92 100.08C107.36 100.12 106.96 100.14 106.72 100.14C106.52 100.14 106.22 100.18 105.82 100.26C106.34 100.38 106.84 100.52 107.32 100.68C107.8 100.8 108.28 100.94 108.76 101.1C108.96 101.18 109.14 101.26 109.3 101.34C109.46 101.42 109.62 101.5 109.78 101.58C109.86 101.62 109.94 101.6 110.02 101.52C110.1 101.4 110.16 101.36 110.2 101.4L110.86 101.7ZM126.94 78.84C126.74 78.88 126.58 78.84 126.46 78.72C126.34 78.6 126.28 78.5 126.28 78.42C126.28 78.38 126.3 78.36 126.34 78.36L127.9 77.46C128.58 77.06 129.14 76.74 129.58 76.5C130.02 76.26 130.56 75.94 131.2 75.54L131.32 75.48L131.5 75.36L131.68 75.18C131.72 75.18 131.76 75.2 131.8 75.24C131.84 75.24 131.88 75.22 131.92 75.18L132.88 74.76V74.82L132.94 74.76C132.98 74.72 133.02 74.72 133.06 74.76C133.1 74.76 133.14 74.74 133.18 74.7L133.36 74.52C133.44 74.52 133.52 74.5 133.6 74.46C133.68 74.42 133.76 74.38 133.84 74.34L134.32 74.28C134.36 74.32 134.32 74.38 134.2 74.46C134.12 74.54 134.08 74.58 134.08 74.58H134.5V74.64L134.92 74.88H135.1C135.1 74.92 135.12 74.96 135.16 75C135.24 75.04 135.28 75.1 135.28 75.18L135.4 75.24H135.52L135.46 75.36L135.16 75.48L134.56 75.84L134.02 76.02L133.66 76.08C133.5 76.16 133.32 76.24 133.12 76.32C132.92 76.4 132.72 76.48 132.52 76.56H132.4C132.4 76.6 132.38 76.62 132.34 76.62L132.1 76.74L129.94 77.52C129.9 77.56 129.9 77.54 129.94 77.46C129.98 77.34 129.96 77.32 129.88 77.4C129.76 77.4 129.58 77.5 129.34 77.7C129.1 77.86 128.94 77.98 128.86 78.06C128.62 78.18 128.4 78.26 128.2 78.3C128.04 78.34 127.62 78.52 126.94 78.84ZM132.545 110.88C132.145 110.88 131.725 110.8 131.285 110.64C130.845 110.44 130.685 110.22 130.805 109.98C130.965 109.66 131.145 109.34 131.345 109.02C131.585 108.66 131.805 108.28 132.005 107.88L132.665 106.62C132.745 106.42 132.825 106.28 132.905 106.2C133.025 106.08 133.125 105.94 133.205 105.78C133.245 105.74 133.265 105.64 133.265 105.48C133.265 105.28 133.345 105.06 133.505 104.82C133.705 104.54 133.845 104.28 133.925 104.04C133.965 104 134.005 104.12 134.045 104.4C134.085 104.68 134.185 104.66 134.345 104.34C134.385 104.3 134.365 104.24 134.285 104.16C134.245 104.08 134.225 104 134.225 103.92C134.225 103.84 134.245 103.8 134.285 103.8C134.365 103.76 134.405 103.72 134.405 103.68C134.445 103.56 134.405 103.52 134.285 103.56C134.205 103.56 134.165 103.54 134.165 103.5C134.245 103.38 134.325 103.3 134.405 103.26C134.525 103.22 134.605 103.16 134.645 103.08C134.645 103 134.605 102.96 134.525 102.96C134.485 102.92 134.485 102.88 134.525 102.84C134.725 102.28 134.945 101.62 135.185 100.86C135.425 100.1 135.605 99.4 135.725 98.76C135.725 98.76 135.685 98.74 135.605 98.7C135.525 98.62 135.485 98.54 135.485 98.46L135.065 98.16C134.585 98.6 134.065 98.98 133.505 99.3C133.465 99.34 133.385 99.36 133.265 99.36C133.105 99.36 133.005 99.28 132.965 99.12C132.925 98.96 132.985 98.82 133.145 98.7C133.345 98.58 133.505 98.5 133.625 98.46C133.745 98.38 133.885 98.26 134.045 98.1C134.125 98.02 134.165 97.94 134.165 97.86C134.205 97.78 134.245 97.7 134.285 97.62L134.525 97.32C134.525 97.12 134.565 96.96 134.645 96.84C134.725 96.76 134.785 96.72 134.825 96.72C134.865 96.72 134.885 96.72 134.885 96.72V96.6C134.885 96.44 134.945 96.34 135.065 96.3C135.225 96.26 135.305 96.2 135.305 96.12C135.385 95.56 135.865 95.14 136.745 94.86C137.625 94.58 138.405 94.44 139.085 94.44C139.765 94.44 140.105 94.54 140.105 94.74C140.105 94.86 139.985 95 139.745 95.16C139.625 95.24 139.425 95.42 139.145 95.7C138.865 95.98 138.605 96.32 138.365 96.72L137.945 97.44L137.525 97.98C137.245 98.62 136.845 99.6 136.325 100.92C135.805 102.24 135.265 103.9 134.705 105.9C134.825 105.74 135.105 105.4 135.545 104.88C135.985 104.36 136.505 103.76 137.105 103.08C137.705 102.4 138.285 101.76 138.845 101.16C139.405 100.52 139.865 100.02 140.225 99.66L140.525 99.48C140.605 99.4 140.685 99.3 140.765 99.18C140.885 99.02 140.985 98.9 141.065 98.82C141.105 98.78 141.125 98.86 141.125 99.06C141.165 99.22 141.205 99.28 141.245 99.24C141.405 99.12 141.485 98.94 141.485 98.7C141.525 98.46 141.625 98.3 141.785 98.22C142.225 97.86 142.825 97.36 143.585 96.72C144.385 96.04 145.205 95.64 146.045 95.52C146.125 95.44 146.245 95.42 146.405 95.46C146.605 95.46 146.745 95.44 146.825 95.4C146.905 95.4 146.965 95.38 147.005 95.34C147.045 95.3 147.145 95.28 147.305 95.28C147.385 95.28 147.545 95.34 147.785 95.46C148.065 95.58 148.225 95.74 148.265 95.94C148.505 96.1 148.625 96.34 148.625 96.66C148.625 97.22 148.325 97.64 147.725 97.92C147.525 98.12 147.305 98.32 147.065 98.52C146.825 98.68 146.585 98.86 146.345 99.06C146.265 99.14 146.205 99.18 146.165 99.18C145.885 99.42 145.645 99.68 145.445 99.96C145.245 100.24 145.145 100.6 145.145 101.04C145.145 101.08 145.185 101.14 145.265 101.22C145.345 101.26 145.365 101.3 145.325 101.34C145.445 101.46 145.625 101.54 145.865 101.58C146.105 101.58 146.345 101.58 146.585 101.58C146.985 101.58 147.585 101.42 148.385 101.1H148.505C148.545 101.1 148.565 101.12 148.565 101.16C148.565 101.24 148.485 101.38 148.325 101.58C148.165 101.74 147.985 101.86 147.785 101.94C147.345 102.1 146.885 102.2 146.405 102.24C145.925 102.24 145.585 102.24 145.385 102.24C144.665 102.24 144.205 102.1 144.005 101.82C143.845 101.54 143.685 101.2 143.525 100.8V100.5L143.825 100.2C143.785 100.08 143.725 99.96 143.645 99.84C143.565 99.72 143.525 99.58 143.525 99.42C143.525 99.02 143.685 98.56 144.005 98.04C143.565 98.16 143.005 98.5 142.325 99.06C141.685 99.58 141.025 100.2 140.345 100.92C139.665 101.6 139.045 102.28 138.485 102.96C137.925 103.6 137.485 104.12 137.165 104.52C137.045 104.68 136.905 104.78 136.745 104.82C136.625 104.82 136.525 104.88 136.445 105C136.405 105.04 136.445 105.06 136.565 105.06C136.725 105.06 136.785 105.08 136.745 105.12C136.225 105.92 135.665 106.8 135.065 107.76C134.505 108.72 133.945 109.66 133.385 110.58C133.265 110.78 132.985 110.88 132.545 110.88ZM150.599 110.94C150.079 110.94 149.659 110.64 149.339 110.04C149.059 109.4 148.999 108.92 149.159 108.6C149.239 108.52 149.299 108.42 149.339 108.3C149.419 108.14 149.479 108.04 149.519 108C149.599 107.92 149.639 107.9 149.639 107.94C149.679 107.94 149.719 107.92 149.759 107.88C149.799 107.8 149.799 107.74 149.759 107.7C149.719 107.62 149.719 107.56 149.759 107.52C149.879 107.12 150.019 106.68 150.179 106.2C150.379 105.72 150.559 105.26 150.719 104.82C150.719 104.78 150.739 104.74 150.779 104.7C150.819 104.66 150.839 104.62 150.839 104.58C150.919 104.38 150.959 104.2 150.959 104.04C150.999 103.84 151.039 103.66 151.079 103.5C151.079 103.46 151.119 103.46 151.199 103.5C151.279 103.5 151.339 103.48 151.379 103.44C151.459 103.24 151.439 103.14 151.319 103.14C151.199 103.14 151.139 103.12 151.139 103.08L151.679 101.16C151.719 101.12 151.759 100.96 151.799 100.68C151.879 100.4 151.939 100.18 151.979 100.02V100.26C151.979 100.42 151.999 100.6 152.039 100.8C152.119 100.96 152.239 101 152.399 100.92C152.519 100.84 152.539 100.78 152.459 100.74C152.419 100.66 152.379 100.56 152.339 100.44C152.299 100.36 152.299 100.26 152.339 100.14C152.419 99.98 152.459 99.9 152.459 99.9C152.539 99.82 152.619 99.9 152.699 100.14C152.819 100.38 152.899 100.48 152.939 100.44C152.939 100.36 152.939 100.24 152.939 100.08C152.979 99.92 152.959 99.82 152.879 99.78C152.759 99.66 152.579 99.56 152.339 99.48C152.139 99.4 152.059 99.32 152.099 99.24C152.099 99.12 152.119 98.98 152.159 98.82C152.279 98.7 152.339 98.6 152.339 98.52C152.339 98.44 152.299 98.4 152.219 98.4C152.179 98.4 152.159 98.38 152.159 98.34C152.159 98.14 152.159 97.96 152.159 97.8C152.199 97.6 152.219 97.4 152.219 97.2C152.219 96.76 152.079 96.38 151.799 96.06C151.559 95.7 151.199 95.52 150.719 95.52C150.279 95.52 150.059 95.42 150.059 95.22C150.059 95.02 150.279 94.8 150.719 94.56C151.199 94.28 151.739 94.14 152.339 94.14C153.299 94.14 153.939 94.6 154.259 95.52C154.619 96.44 154.739 97.56 154.619 98.88C154.619 98.96 154.539 99.04 154.379 99.12C154.259 99.16 154.199 99.22 154.199 99.3C154.199 99.38 154.239 99.42 154.319 99.42C154.439 99.38 154.519 99.4 154.559 99.48C154.559 99.56 154.539 99.72 154.499 99.96C154.459 100.2 154.419 100.36 154.379 100.44C154.179 101.48 153.919 102.52 153.599 103.56C153.279 104.6 152.899 105.56 152.459 106.44C152.339 106.44 152.259 106.5 152.219 106.62C152.179 106.74 152.119 106.8 152.039 106.8C151.919 106.8 151.799 106.76 151.679 106.68C151.599 106.56 151.559 106.56 151.559 106.68V106.74C151.559 106.9 151.619 107 151.739 107.04C151.899 107.08 151.999 107.12 152.039 107.16C152.119 107.2 152.199 107.22 152.279 107.22C152.359 107.22 152.419 107.18 152.459 107.1C152.539 107.02 152.619 106.96 152.699 106.92C152.939 106.76 153.199 106.5 153.479 106.14C153.799 105.78 154.059 105.44 154.259 105.12C154.499 104.8 154.619 104.64 154.619 104.64C154.539 104.56 154.599 104.48 154.799 104.4L154.859 104.34L155.099 103.98C155.139 103.78 155.259 103.52 155.459 103.2C155.659 102.88 155.839 102.7 155.999 102.66L156.119 102.48L156.059 102.42C156.059 102.42 156.079 102.44 156.119 102.48C156.199 102.48 156.279 102.46 156.359 102.42C156.359 102.38 156.339 102.32 156.299 102.24C156.299 102.16 156.319 102.12 156.359 102.12L156.659 101.64C156.739 101.4 156.819 101.24 156.899 101.16C156.859 101.04 156.899 100.96 157.019 100.92C157.099 100.88 157.179 100.88 157.259 100.92C157.379 100.92 157.439 100.84 157.439 100.68V100.56C157.439 100.48 157.459 100.38 157.499 100.26C157.539 100.14 157.579 100.08 157.619 100.08H157.739L157.859 99.96C157.819 99.88 157.819 99.86 157.859 99.9C157.939 99.9 157.999 99.86 158.039 99.78L158.339 99.42L158.639 98.94C158.639 98.9 158.739 98.78 158.939 98.58C159.139 98.34 159.339 98.12 159.539 97.92C159.779 97.68 159.899 97.56 159.899 97.56C160.179 97.28 160.399 97.02 160.559 96.78C160.719 96.5 160.919 96.22 161.159 95.94L161.279 95.88L161.339 95.76L161.939 94.92C162.259 94.48 162.459 94.14 162.539 93.9C162.619 93.66 162.839 93.6 163.199 93.72C163.279 93.76 163.479 93.84 163.799 93.96C164.119 94.04 164.359 94.1 164.519 94.14H164.819C165.059 94.14 165.279 94.14 165.479 94.14C165.719 94.1 165.919 94.08 166.079 94.08C166.239 94.08 166.419 94.06 166.619 94.02C166.819 93.94 166.939 93.94 166.979 94.02C167.019 94.06 167.039 94.12 167.039 94.2C167.039 94.32 166.999 94.42 166.919 94.5C166.839 94.58 166.759 94.66 166.679 94.74C166.399 95.06 165.979 95.38 165.419 95.7C164.899 96.02 164.539 96.28 164.339 96.48C164.259 96.56 164.119 96.54 163.919 96.42C163.719 96.3 163.559 96.34 163.439 96.54C163.399 96.66 163.319 96.72 163.199 96.72C163.079 96.72 162.859 96.64 162.539 96.48C162.299 96.56 162.079 96.66 161.879 96.78C161.679 96.9 161.439 97.08 161.159 97.32C160.119 98.32 159.039 99.66 157.919 101.34C156.839 102.98 155.719 104.58 154.559 106.14C154.239 106.58 154.019 106.88 153.899 107.04C153.819 107.16 153.699 107.34 153.539 107.58C153.499 107.62 153.439 107.62 153.359 107.58C153.279 107.54 153.199 107.56 153.119 107.64C153.119 107.64 153.119 107.7 153.119 107.82C153.119 107.9 153.099 107.96 153.059 108C153.059 108.04 153.019 108.08 152.939 108.12C152.899 108.16 152.859 108.22 152.819 108.3C152.779 108.34 152.799 108.36 152.879 108.36C152.999 108.36 153.039 108.38 152.999 108.42C152.959 108.58 152.819 108.8 152.579 109.08C152.379 109.36 152.219 109.6 152.099 109.8C151.819 110.2 151.539 110.5 151.259 110.7C151.019 110.86 150.799 110.94 150.599 110.94ZM167.26 111.54C166.38 111.54 165.6 111.3 164.92 110.82C164.28 110.3 163.96 109.42 163.96 108.18C163.96 107.74 164.04 107.12 164.2 106.32C164.36 105.52 164.62 104.68 164.98 103.8C165.18 103.32 165.4 102.86 165.64 102.42C165.92 101.98 166.18 101.56 166.42 101.16C166.46 101.12 166.58 101.16 166.78 101.28C167.02 101.4 167.16 101.44 167.2 101.4C167.24 101.32 167.18 101.24 167.02 101.16C166.9 101.04 166.86 100.96 166.9 100.92C166.98 100.84 167.04 100.8 167.08 100.8C167.16 100.76 167.22 100.7 167.26 100.62C167.3 100.54 167.32 100.46 167.32 100.38C167.32 100.26 167.26 100.16 167.14 100.08C167.06 100 167.1 99.88 167.26 99.72C167.46 99.44 167.68 99.18 167.92 98.94C168.2 98.66 168.44 98.42 168.64 98.22C168.72 98.14 168.82 98.02 168.94 97.86C169.06 97.66 169.14 97.54 169.18 97.5L169.3 97.38C169.34 97.34 169.38 97.3 169.42 97.26C169.42 97.22 169.42 97.2 169.42 97.2C169.46 97.2 169.48 97.18 169.48 97.14C169.48 97.02 169.36 96.9 169.12 96.78C168.88 96.66 168.76 96.58 168.76 96.54C168.76 96.5 168.74 96.46 168.7 96.42C168.66 96.38 168.62 96.32 168.58 96.24C168.62 96.24 168.66 96.2 168.7 96.12C168.78 96 168.84 95.94 168.88 95.94C168.92 95.94 169 95.98 169.12 96.06C169.24 96.1 169.32 96.12 169.36 96.12C169.4 96.12 169.42 96.1 169.42 96.06C169.46 96.02 169.5 96 169.54 96C169.62 96 169.8 96.06 170.08 96.18C170.36 96.26 170.52 96.3 170.56 96.3C170.6 96.3 170.72 96.2 170.92 96C171.12 95.8 171.24 95.68 171.28 95.64C171.36 95.56 171.42 95.48 171.46 95.4C171.5 95.28 171.6 95.14 171.76 94.98H171.82C171.86 94.94 171.88 94.9 171.88 94.86C171.88 94.82 171.88 94.8 171.88 94.8C171.96 94.72 172.02 94.66 172.06 94.62C172.14 94.54 172.2 94.48 172.24 94.44C172.28 94.4 172.3 94.38 172.3 94.38C172.34 94.38 172.36 94.38 172.36 94.38C172.4 94.3 172.44 94.24 172.48 94.2C172.56 94.16 172.62 94.12 172.66 94.08L172.78 93.84C172.86 93.76 173.14 93.58 173.62 93.3C174.1 93.02 174.46 92.88 174.7 92.88H175C175 92.88 175 92.9 175 92.94C175 92.94 175.02 92.94 175.06 92.94C175.1 92.94 175.14 92.94 175.18 92.94C175.22 92.9 175.26 92.88 175.3 92.88C175.3 92.88 175.36 92.94 175.48 93.06C175.52 93.1 175.56 93.12 175.6 93.12C175.64 93.08 175.68 93.06 175.72 93.06C175.76 93.1 175.78 93.14 175.78 93.18C175.78 93.22 175.8 93.24 175.84 93.24C175.92 93.24 175.94 93.24 175.9 93.24C175.9 93.2 175.92 93.18 175.96 93.18C176 93.18 176.02 93.22 176.02 93.3C176.02 93.38 176.04 93.46 176.08 93.54C176.04 93.66 176 93.8 175.96 93.96C175.96 94.08 175.94 94.18 175.9 94.26C175.54 94.74 175.26 94.98 175.06 94.98C175.06 95.02 175 95.1 174.88 95.22C174.76 95.22 174.62 95.26 174.46 95.34C174.3 95.42 174.14 95.5 173.98 95.58V95.76C173.98 95.92 173.92 96 173.8 96C173.72 95.96 173.64 96.02 173.56 96.18V96.24C173.64 96.36 173.78 96.42 173.98 96.42L174.4 96.48C174.48 96.48 174.52 96.46 174.52 96.42C174.56 96.38 174.6 96.36 174.64 96.36C174.68 96.36 174.7 96.38 174.7 96.42C174.7 96.42 174.72 96.42 174.76 96.42C174.84 96.42 174.9 96.4 174.94 96.36C174.98 96.32 175.02 96.3 175.06 96.3L175.6 96.36C175.48 96.16 175.42 96 175.42 95.88C175.42 95.68 175.6 95.56 175.96 95.52C176.52 95.52 177 95.72 177.4 96.12C177.48 96.08 177.58 96.08 177.7 96.12C177.82 96.16 177.94 96.16 178.06 96.12L178.36 95.94L178.42 96C178.58 95.92 178.68 95.88 178.72 95.88C178.8 95.88 178.82 95.9 178.78 95.94C178.78 95.94 178.8 95.94 178.84 95.94C178.84 95.94 178.88 95.9 178.96 95.82C179 95.82 179.04 95.84 179.08 95.88C179.16 95.88 179.22 95.86 179.26 95.82L179.44 95.64H180.16L180.22 95.58C180.3 95.54 180.4 95.5 180.52 95.46C180.68 95.38 180.82 95.34 180.94 95.34C180.94 95.3 180.98 95.28 181.06 95.28C181.14 95.24 181.2 95.22 181.24 95.22H181.36C181.56 95.22 181.66 95.28 181.66 95.4C181.66 95.52 181.6 95.62 181.48 95.7C181.44 95.74 181.38 95.76 181.3 95.76C181.22 95.72 181.14 95.72 181.06 95.76C180.9 95.92 180.78 96 180.7 96C180.66 96 180.64 96 180.64 96C180.64 95.96 180.62 95.94 180.58 95.94C180.54 95.94 180.46 96 180.34 96.12L179.92 96.18H179.86C179.78 96.18 179.74 96.22 179.74 96.3C179.58 96.3 179.42 96.32 179.26 96.36C179.1 96.36 178.94 96.38 178.78 96.42L178.72 96.48C178.68 96.48 178.64 96.5 178.6 96.54C178.56 96.54 178.5 96.54 178.42 96.54C178.34 96.58 178.12 96.6 177.76 96.6C178 96.92 178.16 97.22 178.24 97.5C178.32 97.7 178.38 98.02 178.42 98.46C178.5 98.86 178.52 99.16 178.48 99.36C178.48 99.48 178.44 99.52 178.36 99.48C178.28 99.4 178.24 99.4 178.24 99.48C178.24 99.6 178.28 99.68 178.36 99.72C178.48 99.72 178.54 99.82 178.54 100.02C178.54 100.14 178.52 100.3 178.48 100.5C178.44 100.66 178.4 100.84 178.36 101.04C178.32 101.28 178.26 101.54 178.18 101.82C178.14 102.06 178.04 102.3 177.88 102.54L177.7 102.84V103.2C177.7 103.52 177.6 103.74 177.4 103.86C177.24 103.98 177.12 104.12 177.04 104.28C176.96 104.52 176.9 104.68 176.86 104.76C176.86 104.84 176.78 105 176.62 105.24C176.1 106.04 175.48 106.8 174.76 107.52C174.04 108.24 173.34 108.9 172.66 109.5C172.06 110.02 171.24 110.5 170.2 110.94C169.2 111.34 168.22 111.54 167.26 111.54ZM167.86 110.46C167.98 110.46 168.22 110.44 168.58 110.4C168.94 110.32 169.32 110.14 169.72 109.86C169.8 109.82 169.88 109.84 169.96 109.92C170.04 110 170.12 110.02 170.2 109.98C170.4 109.9 170.48 109.84 170.44 109.8C170.4 109.76 170.46 109.72 170.62 109.68H170.68C170.92 109.68 171.02 109.66 170.98 109.62C170.98 109.54 171 109.44 171.04 109.32C171.04 109.2 171.1 109.1 171.22 109.02C171.34 108.94 171.44 108.88 171.52 108.84C171.96 108.48 172.5 107.88 173.14 107.04C173.78 106.16 174.42 105.28 175.06 104.4C175.1 104.32 175.16 104.3 175.24 104.34C175.32 104.38 175.38 104.38 175.42 104.34C175.46 104.3 175.48 104.18 175.48 103.98C175.48 103.86 175.54 103.68 175.66 103.44C175.78 103.16 175.9 102.94 176.02 102.78C176.06 102.66 176.14 102.44 176.26 102.12C176.38 101.76 176.48 101.44 176.56 101.16C176.68 100.84 176.7 100.68 176.62 100.68C176.54 100.64 176.5 100.6 176.5 100.56C176.5 100.48 176.62 100.4 176.86 100.32C177.1 100.24 177.08 100.18 176.8 100.14C176.72 100.1 176.74 100.02 176.86 99.9C176.98 99.78 176.92 99.7 176.68 99.66C176.48 99.62 176.4 99.56 176.44 99.48C176.52 99.4 176.58 99.34 176.62 99.3C176.74 99.18 176.8 99.06 176.8 98.94C176.8 98.58 176.7 98.22 176.5 97.86C176.34 97.5 176.16 97.18 175.96 96.9C175.72 97.06 175.6 97.14 175.6 97.14C175.56 97.14 175.54 97.14 175.54 97.14C175.54 97.1 175.5 97.08 175.42 97.08C175.38 97.08 175.36 97.08 175.36 97.08C175.36 97.04 175.34 97.02 175.3 97.02C175.26 97.02 175.22 97.04 175.18 97.08C175.14 97.12 175.12 97.14 175.12 97.14C175.08 97.18 175 97.2 174.88 97.2C174.8 97.2 174.74 97.2 174.7 97.2C174.66 97.2 174.62 97.18 174.58 97.14C174.58 97.1 174.56 97.08 174.52 97.08C174.48 97.08 174.42 97.12 174.34 97.2C174.3 97.28 174.24 97.32 174.16 97.32C174.12 97.32 174.1 97.3 174.1 97.26C174.1 97.22 174.06 97.2 173.98 97.2C173.94 97.2 173.9 97.22 173.86 97.26C173.86 97.3 173.84 97.32 173.8 97.32C173.76 97.32 173.68 97.26 173.56 97.14H173.5C173.5 97.38 173.44 97.5 173.32 97.5C173.28 97.5 173.22 97.46 173.14 97.38C172.7 97.66 171.96 98.32 170.92 99.36C169.88 100.36 168.96 101.52 168.16 102.84C168 103.16 167.8 103.54 167.56 103.98C167.36 104.42 167.18 104.92 167.02 105.48C166.98 105.72 166.86 105.9 166.66 106.02C166.5 106.14 166.38 106.28 166.3 106.44C166.26 106.6 166.28 106.7 166.36 106.74C166.44 106.78 166.5 106.84 166.54 106.92C166.54 107.08 166.5 107.3 166.42 107.58C166.38 107.86 166.36 108.12 166.36 108.36C166.36 109.12 166.5 109.66 166.78 109.98C167.1 110.3 167.46 110.46 167.86 110.46ZM182.701 110.88C182.301 110.88 181.881 110.8 181.441 110.64C181.001 110.44 180.841 110.22 180.961 109.98C181.121 109.66 181.301 109.34 181.501 109.02C181.741 108.66 181.961 108.28 182.161 107.88L182.821 106.62C182.901 106.42 182.981 106.28 183.061 106.2C183.181 106.08 183.281 105.94 183.361 105.78C183.401 105.74 183.421 105.64 183.421 105.48C183.421 105.28 183.501 105.06 183.661 104.82C183.861 104.54 184.001 104.28 184.081 104.04C184.121 104 184.161 104.12 184.201 104.4C184.241 104.68 184.341 104.66 184.501 104.34C184.541 104.3 184.521 104.24 184.441 104.16C184.401 104.08 184.381 104 184.381 103.92C184.381 103.84 184.401 103.8 184.441 103.8C184.521 103.76 184.561 103.72 184.561 103.68C184.601 103.56 184.561 103.52 184.441 103.56C184.361 103.56 184.321 103.54 184.321 103.5C184.401 103.38 184.481 103.3 184.561 103.26C184.681 103.22 184.761 103.16 184.801 103.08C184.801 103 184.761 102.96 184.681 102.96C184.641 102.92 184.641 102.88 184.681 102.84C184.881 102.28 185.101 101.62 185.341 100.86C185.581 100.1 185.761 99.4 185.881 98.76C185.881 98.76 185.841 98.74 185.761 98.7C185.681 98.62 185.641 98.54 185.641 98.46L185.221 98.16C184.741 98.6 184.221 98.98 183.661 99.3C183.621 99.34 183.541 99.36 183.421 99.36C183.261 99.36 183.161 99.28 183.121 99.12C183.081 98.96 183.141 98.82 183.301 98.7C183.501 98.58 183.661 98.5 183.781 98.46C183.901 98.38 184.041 98.26 184.201 98.1C184.281 98.02 184.321 97.94 184.321 97.86C184.361 97.78 184.401 97.7 184.441 97.62L184.681 97.32C184.681 97.12 184.721 96.96 184.801 96.84C184.881 96.76 184.941 96.72 184.981 96.72C185.021 96.72 185.041 96.72 185.041 96.72V96.6C185.041 96.44 185.101 96.34 185.221 96.3C185.381 96.26 185.461 96.2 185.461 96.12C185.541 95.56 186.021 95.14 186.901 94.86C187.781 94.58 188.561 94.44 189.241 94.44C189.921 94.44 190.261 94.54 190.261 94.74C190.261 94.86 190.141 95 189.901 95.16C189.781 95.24 189.581 95.42 189.301 95.7C189.021 95.98 188.761 96.32 188.521 96.72L188.101 97.44L187.681 97.98C187.401 98.62 187.001 99.6 186.481 100.92C185.961 102.24 185.421 103.9 184.861 105.9C184.981 105.74 185.261 105.4 185.701 104.88C186.141 104.36 186.661 103.76 187.261 103.08C187.861 102.4 188.441 101.76 189.001 101.16C189.561 100.52 190.021 100.02 190.381 99.66L190.681 99.48C190.761 99.4 190.841 99.3 190.921 99.18C191.041 99.02 191.141 98.9 191.221 98.82C191.261 98.78 191.281 98.86 191.281 99.06C191.321 99.22 191.361 99.28 191.401 99.24C191.561 99.12 191.641 98.94 191.641 98.7C191.681 98.46 191.781 98.3 191.941 98.22C192.381 97.86 192.981 97.36 193.741 96.72C194.541 96.04 195.361 95.64 196.201 95.52C196.281 95.44 196.401 95.42 196.561 95.46C196.761 95.46 196.901 95.44 196.981 95.4C197.061 95.4 197.121 95.38 197.161 95.34C197.201 95.3 197.301 95.28 197.461 95.28C197.541 95.28 197.701 95.34 197.941 95.46C198.221 95.58 198.381 95.74 198.421 95.94C198.661 96.1 198.781 96.34 198.781 96.66C198.781 97.22 198.481 97.64 197.881 97.92C197.681 98.12 197.461 98.32 197.221 98.52C196.981 98.68 196.741 98.86 196.501 99.06C196.421 99.14 196.361 99.18 196.321 99.18C196.041 99.42 195.801 99.68 195.601 99.96C195.401 100.24 195.301 100.6 195.301 101.04C195.301 101.08 195.341 101.14 195.421 101.22C195.501 101.26 195.521 101.3 195.481 101.34C195.601 101.46 195.781 101.54 196.021 101.58C196.261 101.58 196.501 101.58 196.741 101.58C197.141 101.58 197.741 101.42 198.541 101.1H198.661C198.701 101.1 198.721 101.12 198.721 101.16C198.721 101.24 198.641 101.38 198.481 101.58C198.321 101.74 198.141 101.86 197.941 101.94C197.501 102.1 197.041 102.2 196.561 102.24C196.081 102.24 195.741 102.24 195.541 102.24C194.821 102.24 194.361 102.1 194.161 101.82C194.001 101.54 193.841 101.2 193.681 100.8V100.5L193.981 100.2C193.941 100.08 193.881 99.96 193.801 99.84C193.721 99.72 193.681 99.58 193.681 99.42C193.681 99.02 193.841 98.56 194.161 98.04C193.721 98.16 193.161 98.5 192.481 99.06C191.841 99.58 191.181 100.2 190.501 100.92C189.821 101.6 189.201 102.28 188.641 102.96C188.081 103.6 187.641 104.12 187.321 104.52C187.201 104.68 187.061 104.78 186.901 104.82C186.781 104.82 186.681 104.88 186.601 105C186.561 105.04 186.601 105.06 186.721 105.06C186.881 105.06 186.941 105.08 186.901 105.12C186.381 105.92 185.821 106.8 185.221 107.76C184.661 108.72 184.101 109.66 183.541 110.58C183.421 110.78 183.141 110.88 182.701 110.88ZM201.595 111.12C200.595 111.12 199.715 110.84 198.955 110.28C198.195 109.72 197.815 108.76 197.815 107.4C197.815 106.88 197.875 106.36 197.995 105.84C198.115 105.28 198.255 104.74 198.415 104.22C198.495 103.7 198.615 103.24 198.775 102.84C198.815 102.68 198.835 102.6 198.835 102.6C198.875 102.56 198.975 102.5 199.135 102.42L199.615 101.7V101.46C199.575 101.46 199.555 101.46 199.555 101.46C199.555 101.42 199.555 101.4 199.555 101.4C199.555 101.28 199.655 101.14 199.855 100.98C200.055 100.82 200.155 100.74 200.155 100.74C200.195 100.54 200.255 100.44 200.335 100.44C200.415 100.44 200.515 100.38 200.635 100.26H201.295V100.14C201.295 99.94 201.195 99.86 200.995 99.9C200.835 99.9 200.755 99.88 200.755 99.84C200.755 99.8 200.815 99.72 200.935 99.6C201.095 99.44 201.195 99.34 201.235 99.3C201.355 99.14 201.455 99 201.535 98.88C201.615 98.72 201.735 98.6 201.895 98.52C202.615 97.64 203.055 97.08 203.215 96.84C203.415 96.6 203.615 96.42 203.815 96.3C203.895 96.3 203.955 96.34 203.995 96.42C204.075 96.46 204.075 96.52 203.995 96.6C204.075 96.72 204.135 96.74 204.175 96.66C204.255 96.58 204.295 96.54 204.295 96.54L204.535 96.42C204.455 96.34 204.415 96.24 204.415 96.12C204.415 95.92 204.455 95.76 204.535 95.64C204.615 95.48 204.755 95.32 204.955 95.16C205.195 95 205.315 94.9 205.315 94.86C205.555 94.78 205.735 94.7 205.855 94.62C206.015 94.54 206.175 94.5 206.335 94.5C206.615 94.5 206.895 94.6 207.175 94.8C207.935 95.2 208.575 95.6 209.095 96C209.615 96.4 209.875 96.96 209.875 97.68C209.875 98.44 209.555 99.1 208.915 99.66C208.315 100.18 207.575 100.62 206.695 100.98C205.815 101.34 204.935 101.64 204.055 101.88C203.215 102.08 202.555 102.24 202.075 102.36C201.795 102.4 201.655 102.52 201.655 102.72C201.695 102.88 201.675 103.06 201.595 103.26L201.175 103.92L200.815 104.76L200.515 105.3C200.235 105.54 200.135 105.72 200.215 105.84C200.295 105.96 200.435 105.94 200.635 105.78C200.675 105.82 200.695 105.88 200.695 105.96C200.695 106.12 200.655 106.32 200.575 106.56C200.495 106.76 200.435 106.92 200.395 107.04C200.355 107.2 200.355 107.28 200.395 107.28C200.475 107.24 200.515 107.32 200.515 107.52L200.575 108.36C200.815 109.12 201.355 109.56 202.195 109.68C202.275 109.68 202.355 109.7 202.435 109.74C202.555 109.74 202.655 109.74 202.735 109.74C203.455 109.74 203.835 109.68 203.875 109.56C203.955 109.44 204.055 109.36 204.175 109.32C204.535 109.24 204.835 109.16 205.075 109.08C205.355 109 205.635 108.88 205.915 108.72C206.395 108.52 206.855 108.26 207.295 107.94C207.735 107.62 208.195 107.3 208.675 106.98L209.275 106.56C209.315 106.48 209.315 106.42 209.275 106.38C209.235 106.34 209.235 106.3 209.275 106.26C209.355 106.22 209.415 106.22 209.455 106.26C209.535 106.26 209.595 106.24 209.635 106.2C209.715 106.16 209.795 106.1 209.875 106.02C209.955 105.9 210.035 105.8 210.115 105.72C210.195 105.64 210.235 105.56 210.235 105.48C210.275 105.4 210.335 105.32 210.415 105.24C210.735 104.92 211.055 104.58 211.375 104.22C211.735 103.86 212.035 103.54 212.275 103.26C212.555 102.86 212.775 102.66 212.935 102.66C213.015 102.66 213.055 102.7 213.055 102.78C213.055 102.98 212.915 103.28 212.635 103.68C211.955 104.68 211.175 105.66 210.295 106.62C209.415 107.54 208.455 108.38 207.415 109.14C206.655 109.66 205.755 110.12 204.715 110.52C203.675 110.92 202.635 111.12 201.595 111.12ZM202.495 101.46C203.095 101.42 203.875 101.26 204.835 100.98C205.795 100.66 206.595 100.24 207.235 99.72C207.915 99.16 208.255 98.54 208.255 97.86C208.255 97.22 207.915 96.6 207.235 96C206.675 96.4 206.055 96.98 205.375 97.74C204.735 98.46 204.155 99.18 203.635 99.9C203.115 100.58 202.735 101.1 202.495 101.46ZM216.756 111.24C216.716 111.24 216.656 111.2 216.576 111.12C216.496 111.08 216.436 111.06 216.396 111.06C216.236 111.1 216.096 111.12 215.976 111.12C215.856 111.12 215.736 111.12 215.616 111.12C215.576 111.12 215.536 111.1 215.496 111.06C215.496 111.02 215.476 111 215.436 111C215.396 111 215.376 111 215.376 111C215.416 111.04 215.416 111.06 215.376 111.06C215.376 111.06 215.336 111.04 215.256 111C215.176 110.96 215.116 110.94 215.076 110.94L215.016 110.88C214.936 110.88 214.876 110.86 214.836 110.82C214.836 110.78 214.816 110.76 214.776 110.76L214.716 110.82L214.656 110.76C214.576 110.72 214.456 110.68 214.296 110.64C214.176 110.56 214.076 110.5 213.996 110.46C213.916 110.46 213.816 110.4 213.696 110.28H213.576C213.496 110.16 213.356 110.08 213.156 110.04C213.156 110 213.136 109.96 213.096 109.92H213.036C212.956 109.8 212.896 109.76 212.856 109.8C212.816 109.72 212.756 109.66 212.676 109.62C212.636 109.54 212.576 109.48 212.496 109.44C212.496 109.28 212.456 109.2 212.376 109.2C212.376 109.12 212.296 109 212.136 108.84C212.016 108.68 211.936 108.54 211.896 108.42L211.836 108.36C211.676 108.2 211.556 107.94 211.476 107.58C211.436 107.42 211.396 107.36 211.356 107.4C211.356 107.44 211.336 107.34 211.296 107.1C211.296 107.06 211.296 107 211.296 106.92C211.336 106.8 211.336 106.72 211.296 106.68C211.296 106.64 211.276 106.62 211.236 106.62C211.236 106.58 211.236 106.54 211.236 106.5C211.196 106.46 211.176 106.44 211.176 106.44C211.216 106.4 211.236 106.38 211.236 106.38C211.236 106.3 211.216 106.26 211.176 106.26C211.176 106.22 211.176 106.18 211.176 106.14V106.02C211.176 105.82 211.216 105.68 211.296 105.6C211.296 105.52 211.316 105.46 211.356 105.42C211.396 105.38 211.416 105.34 211.416 105.3C211.416 105.22 211.456 105.18 211.536 105.18C211.616 105.18 211.656 105.16 211.656 105.12C211.656 105.04 211.676 105 211.716 105C211.796 104.96 211.856 104.92 211.896 104.88C211.896 104.84 211.916 104.8 211.956 104.76C212.036 104.72 212.076 104.68 212.076 104.64C212.276 104.52 212.496 104.46 212.736 104.46C213.216 104.46 213.456 104.58 213.456 104.82C213.456 104.9 213.336 105.04 213.096 105.24C213.056 105.36 213.036 105.44 213.036 105.48C213.076 105.48 213.056 105.52 212.976 105.6C213.016 105.72 213.036 105.88 213.036 106.08C212.996 106.08 212.976 106.14 212.976 106.26C213.016 106.34 213.036 106.38 213.036 106.38C213.036 106.42 213.056 106.54 213.096 106.74C213.176 106.94 213.236 107.06 213.276 107.1C213.276 107.1 213.316 107.2 213.396 107.4C213.476 107.56 213.516 107.66 213.516 107.7V107.82C213.596 107.94 213.636 108.02 213.636 108.06C213.676 108.06 213.836 108.14 214.116 108.3C214.156 108.34 214.236 108.36 214.356 108.36C214.556 108.48 214.696 108.58 214.776 108.66C214.896 108.74 215.176 108.82 215.616 108.9C215.776 108.94 215.836 108.98 215.796 109.02C215.796 109.02 215.876 109.02 216.036 109.02C216.036 109.02 216.036 109.04 216.036 109.08C216.036 109.08 216.056 109.08 216.096 109.08C216.176 109.04 216.256 109.04 216.336 109.08C216.416 109.08 216.496 109.06 216.576 109.02H216.816C217.096 109.02 217.396 108.98 217.716 108.9L218.616 108.66C218.896 108.62 219.156 108.54 219.396 108.42C219.636 108.3 219.856 108.18 220.056 108.06C220.096 108.06 220.216 108 220.416 107.88C220.616 107.72 220.856 107.56 221.136 107.4C221.096 107.28 221.076 107.12 221.076 106.92C221.076 106.8 221.136 106.74 221.256 106.74C221.376 106.7 221.456 106.64 221.496 106.56C221.376 106.48 221.216 106.44 221.016 106.44C220.856 106.44 220.796 106.38 220.836 106.26C220.676 105.38 220.436 104.58 220.116 103.86C219.836 103.14 219.496 102.34 219.096 101.46C219.056 101.34 218.976 101.14 218.856 100.86C218.736 100.58 218.656 100.36 218.616 100.2C218.616 100.16 218.656 100.16 218.736 100.2C218.816 100.2 218.836 100.18 218.796 100.14C218.756 99.94 218.716 99.74 218.676 99.54C218.676 99.34 218.656 99.16 218.616 99C218.576 98.92 218.616 98.86 218.736 98.82C218.856 98.78 218.896 98.72 218.856 98.64C218.816 98.56 218.736 98.54 218.616 98.58C218.496 98.62 218.416 98.6 218.376 98.52L218.196 97.8C218.196 97.6 218.156 97.48 218.076 97.44C218.036 97.4 218.076 97.32 218.196 97.2C218.276 97.16 218.316 97.1 218.316 97.02C218.316 96.9 218.336 96.82 218.376 96.78C218.576 96.66 218.656 96.52 218.616 96.36C218.576 96.16 218.616 95.98 218.736 95.82C218.856 95.66 218.956 95.52 219.036 95.4C219.116 95.24 219.236 95.14 219.396 95.1C219.516 95.02 219.556 95.04 219.516 95.16C219.476 95.28 219.476 95.34 219.516 95.34C219.716 95.34 219.796 95.24 219.756 95.04C219.716 94.84 219.776 94.66 219.936 94.5C220.216 94.26 220.636 94.06 221.196 93.9C221.756 93.74 222.176 93.64 222.456 93.6C222.536 93.6 222.596 93.6 222.636 93.6C222.716 93.56 222.776 93.54 222.816 93.54C223.016 93.54 223.216 93.56 223.416 93.6C223.656 93.64 223.876 93.68 224.076 93.72C224.236 93.76 224.476 93.92 224.796 94.2C225.116 94.44 225.356 94.5 225.516 94.38C225.876 94.06 226.256 93.78 226.656 93.54C227.096 93.3 227.376 93.2 227.496 93.24C227.816 93.28 228.096 93.38 228.336 93.54C228.576 93.66 228.656 94.06 228.576 94.74C228.536 94.98 228.436 95.18 228.276 95.34C228.156 95.46 228.036 95.62 227.916 95.82L227.496 96.42C227.336 96.7 227.136 96.98 226.896 97.26C226.696 97.54 226.516 97.72 226.356 97.8C226.196 97.88 226.036 98.02 225.876 98.22C225.756 98.38 225.596 98.54 225.396 98.7C225.196 98.86 224.976 98.98 224.736 99.06C224.536 99.1 224.396 99.14 224.316 99.18C224.196 99.22 224.016 99.24 223.776 99.24C223.576 99.2 223.516 99.12 223.596 99C223.676 98.96 223.696 98.92 223.656 98.88C223.616 98.8 223.596 98.74 223.596 98.7C223.596 98.62 223.636 98.56 223.716 98.52C223.836 98.48 223.916 98.42 223.956 98.34C223.996 98.3 224.096 98.16 224.256 97.92C224.456 97.68 224.536 97.54 224.496 97.5C224.496 97.38 224.536 97.28 224.616 97.2C224.616 97.12 224.616 97.06 224.616 97.02C224.616 96.94 224.656 96.88 224.736 96.84C224.896 96.8 224.976 96.74 224.976 96.66V95.94C224.976 95.78 224.956 95.62 224.916 95.46C224.916 95.3 224.876 95.16 224.796 95.04C224.476 94.64 223.956 94.44 223.236 94.44C222.716 94.44 222.216 94.56 221.736 94.8C221.216 95.04 220.776 95.44 220.416 96C220.136 96.4 219.996 96.82 219.996 97.26C219.996 97.58 220.056 97.9 220.176 98.22C220.336 98.54 220.476 98.84 220.596 99.12C220.716 99.4 220.876 99.74 221.076 100.14C221.316 100.54 221.496 100.86 221.616 101.1C221.816 101.42 222.036 101.8 222.276 102.24C222.516 102.64 222.696 103.02 222.816 103.38C222.856 103.42 222.816 103.46 222.696 103.5C222.616 103.5 222.596 103.54 222.636 103.62C222.676 103.7 222.736 103.74 222.816 103.74C222.896 103.74 222.956 103.78 222.996 103.86C223.076 103.98 223.076 104.08 222.996 104.16C222.956 104.24 222.956 104.36 222.996 104.52C222.996 104.56 223.036 104.6 223.116 104.64C223.196 104.68 223.236 104.72 223.236 104.76C223.436 105.28 223.536 105.7 223.536 106.02C223.896 105.82 224.296 105.58 224.736 105.3C225.176 105.02 225.416 104.76 225.456 104.52C225.496 104.44 225.556 104.42 225.636 104.46C225.756 104.46 225.816 104.5 225.816 104.58C225.776 104.86 225.436 105.24 224.796 105.72C224.196 106.2 223.736 106.54 223.416 106.74C223.456 106.78 223.436 106.88 223.356 107.04C223.276 107.2 223.256 107.32 223.296 107.4C223.296 107.44 223.276 107.5 223.236 107.58C223.196 107.62 223.156 107.68 223.116 107.76C223.116 107.92 223.076 108.04 222.996 108.12V108.24L222.816 108.36C222.776 108.4 222.716 108.5 222.636 108.66C222.596 108.78 222.536 108.88 222.456 108.96H222.276C222.196 109.04 222.156 109.14 222.156 109.26C222.076 109.38 221.896 109.52 221.616 109.68C221.336 109.8 221.156 109.92 221.076 110.04C221.076 110.04 221.056 110.04 221.016 110.04C220.976 110.04 220.916 110.08 220.836 110.16H220.656C220.616 110.16 220.576 110.2 220.536 110.28C220.496 110.32 220.456 110.36 220.416 110.4C220.296 110.4 220.236 110.44 220.236 110.52C220.076 110.52 219.956 110.54 219.876 110.58L219.276 110.7C219.116 110.86 218.976 110.94 218.856 110.94L218.796 110.88C218.716 110.96 218.656 111 218.616 111H218.376C218.336 111 218.296 111.02 218.256 111.06C218.216 111.1 218.176 111.12 218.136 111.12H218.016C217.976 111.12 217.936 111.12 217.896 111.12C217.896 111.16 217.856 111.18 217.776 111.18C217.656 111.18 217.476 111.18 217.236 111.18C217.036 111.18 216.876 111.2 216.756 111.24ZM216.156 110.7C216.156 110.7 216.196 110.7 216.276 110.7C216.396 110.66 216.476 110.64 216.516 110.64C216.716 110.64 216.896 110.66 217.056 110.7C217.216 110.7 217.376 110.7 217.536 110.7C217.616 110.7 217.656 110.66 217.656 110.58H217.776C217.896 110.46 217.956 110.44 217.956 110.52C217.996 110.6 218.056 110.6 218.136 110.52C218.216 110.52 218.256 110.5 218.256 110.46L218.496 110.34C218.536 110.34 218.556 110.34 218.556 110.34C218.556 110.3 218.576 110.28 218.616 110.28H218.736C218.816 110.28 218.896 110.24 218.976 110.16C219.056 110.08 219.096 110.04 219.096 110.04C219.096 110.04 219.156 109.98 219.276 109.86C219.276 109.86 219.296 109.86 219.336 109.86C219.376 109.82 219.416 109.8 219.456 109.8C219.536 109.72 219.616 109.68 219.696 109.68C219.696 109.64 219.736 109.6 219.816 109.56C219.896 109.48 219.936 109.44 219.936 109.44C219.976 109.4 220.016 109.38 220.056 109.38C220.136 109.34 220.176 109.3 220.176 109.26C220.256 109.26 220.416 109.12 220.656 108.84C220.896 108.56 221.056 108.22 221.136 107.82C221.136 107.74 221.016 107.8 220.776 108C220.536 108.16 220.416 108.24 220.416 108.24C220.296 108.28 220.176 108.36 220.056 108.48C219.936 108.56 219.836 108.6 219.756 108.6C219.716 108.6 219.656 108.64 219.576 108.72C219.536 108.76 219.496 108.78 219.456 108.78C219.416 108.78 219.396 108.8 219.396 108.84C219.396 108.84 219.356 108.82 219.276 108.78C219.236 108.86 219.116 108.94 218.916 109.02C218.716 109.1 218.576 109.14 218.496 109.14H218.316L218.256 109.2C218.256 109.2 218.236 109.22 218.196 109.26C218.156 109.26 218.116 109.26 218.076 109.26L217.656 109.32H217.596C217.556 109.32 217.516 109.34 217.476 109.38C217.316 109.38 217.136 109.4 216.936 109.44C216.736 109.48 216.616 109.5 216.576 109.5H216.516C216.516 109.46 216.496 109.44 216.456 109.44V109.5H216.156C216.036 109.5 215.896 109.48 215.736 109.44C215.616 109.36 215.516 109.32 215.436 109.32C215.396 109.32 215.376 109.34 215.376 109.38C215.376 109.38 215.356 109.38 215.316 109.38H215.196C215.156 109.38 215.136 109.36 215.136 109.32H214.836C214.836 109.2 214.796 109.18 214.716 109.26H214.656C214.496 109.26 214.356 109.2 214.236 109.08C214.156 108.96 214.016 108.9 213.816 108.9L213.636 108.72C213.636 108.76 213.616 108.8 213.576 108.84C213.576 108.84 213.576 108.86 213.576 108.9C213.576 108.9 213.596 108.94 213.636 109.02C213.716 109.06 213.756 109.1 213.756 109.14L213.876 109.38L214.116 109.68L214.236 109.8C214.276 109.84 214.296 109.86 214.296 109.86C214.336 109.86 214.376 109.9 214.416 109.98C214.496 109.98 214.536 110.04 214.536 110.16C215.216 110.52 215.756 110.7 216.156 110.7ZM249.28 114.78C249.16 114.58 249.1 114.32 249.1 114C249.1 113.84 249.14 113.64 249.22 113.4C249.26 113.28 249.34 112.94 249.46 112.38C249.62 111.86 249.78 111.34 249.94 110.82C250.1 110.26 250.2 109.94 250.24 109.86C250.28 109.86 250.4 109.56 250.6 108.96C250.84 108.32 251.1 107.64 251.38 106.92C251.66 106.2 251.88 105.74 252.04 105.54C252.2 105.1 252.46 104.56 252.82 103.92C253.22 103.24 253.58 102.44 253.9 101.52L253.78 101.64C253.3 102.12 252.68 102.86 251.92 103.86C251.2 104.82 250.4 105.82 249.52 106.86C248.64 107.86 247.74 108.74 246.82 109.5C245.94 110.22 245.1 110.58 244.3 110.58C243.66 110.58 242.92 110.36 242.08 109.92C241.24 109.44 240.82 108.6 240.82 107.4C240.82 106.72 241 105.94 241.36 105.06C241.36 104.98 241.38 104.88 241.42 104.76C241.5 104.64 241.58 104.56 241.66 104.52C241.74 104.48 241.82 104.5 241.9 104.58C241.98 104.62 242.04 104.6 242.08 104.52C242.12 104.52 242.2 104.5 242.32 104.46C242.44 104.38 242.48 104.32 242.44 104.28C242.4 104.24 242.3 104.22 242.14 104.22C241.98 104.18 241.9 104.14 241.9 104.1C241.86 104.02 241.86 103.96 241.9 103.92C241.94 103.84 241.96 103.76 241.96 103.68C241.96 103.56 242 103.48 242.08 103.44C242.2 103.36 242.28 103.28 242.32 103.2C242.32 103 242.44 102.86 242.68 102.78C242.72 102.74 242.78 102.72 242.86 102.72C243.02 102.72 243.06 102.68 242.98 102.6C242.9 102.48 242.86 102.36 242.86 102.24C242.9 102.16 242.96 102.08 243.04 102C243.16 101.88 243.24 101.8 243.28 101.76C243.36 101.68 243.46 101.54 243.58 101.34C243.74 101.1 243.86 100.96 243.94 100.92C244.02 100.92 244.06 100.96 244.06 101.04C244.1 101.08 244.14 101.08 244.18 101.04C244.26 100.96 244.28 100.86 244.24 100.74C244.2 100.62 244.22 100.52 244.3 100.44C244.38 100.36 244.5 100.22 244.66 100.02C244.82 99.82 244.94 99.7 245.02 99.66C245.1 99.58 245.14 99.58 245.14 99.66C245.14 99.7 245.16 99.72 245.2 99.72C245.28 99.72 245.34 99.64 245.38 99.48C245.42 99.28 245.46 99.16 245.5 99.12C245.58 99.08 245.68 99.08 245.8 99.12C245.96 99.12 246.06 99.1 246.1 99.06C246.18 99.02 246.18 98.96 246.1 98.88C246.06 98.76 246.06 98.66 246.1 98.58C246.1 98.5 246.14 98.44 246.22 98.4C246.3 98.36 246.36 98.32 246.4 98.28C246.84 97.88 247.28 97.5 247.72 97.14C248.2 96.78 248.68 96.46 249.16 96.18C249.24 96.14 249.32 96.1 249.4 96.06C249.52 96.02 249.62 96 249.7 96C249.78 96 249.84 96.02 249.88 96.06C249.92 96.1 249.96 96.12 250 96.12C250.08 96.04 250.1 95.98 250.06 95.94C250.06 95.86 250.08 95.78 250.12 95.7C250.16 95.62 250.24 95.56 250.36 95.52C250.48 95.48 250.56 95.44 250.6 95.4C251.08 95.2 251.56 95.04 252.04 94.92C252.52 94.76 252.98 94.68 253.42 94.68C254.1 94.68 254.76 94.84 255.4 95.16C255.64 95.16 255.92 95.2 256.24 95.28L256.6 94.68C256.68 94.52 256.82 94.44 257.02 94.44H257.2C257.32 94.44 257.38 94.38 257.38 94.26C257.38 94.14 257.32 93.88 257.2 93.48C257.2 93.16 257.34 92.98 257.62 92.94L257.74 92.88C257.9 92.04 258.12 91.48 258.4 91.2L258.82 90.72C259.26 90.2 259.6 89.64 259.84 89.04C259.92 88.88 260.02 88.74 260.14 88.62C260.3 88.5 260.42 88.36 260.5 88.2C260.58 88.08 260.6 87.96 260.56 87.84C260.52 87.68 260.52 87.56 260.56 87.48C261.24 86.4 262 85.44 262.84 84.6C262.92 84.4 263.02 84.2 263.14 84C263.3 83.8 263.46 83.6 263.62 83.4C263.82 83.12 264.06 82.92 264.34 82.8C264.62 82.68 264.9 82.48 265.18 82.2C265.26 82.12 265.28 82 265.24 81.84C265.24 81.64 265.28 81.5 265.36 81.42C266.64 80.26 268.08 79.3 269.68 78.54C271.28 77.74 272.54 77.34 273.46 77.34C273.78 77.34 274.08 77.38 274.36 77.46C274.64 77.5 274.94 77.52 275.26 77.52H275.38C275.58 77.52 275.76 77.58 275.92 77.7C276.12 77.78 276.32 77.84 276.52 77.88C276.68 77.88 276.88 77.92 277.12 78C277.32 78.08 277.44 78.2 277.48 78.36C277.52 78.52 277.5 78.64 277.42 78.72C277.38 78.76 277.32 78.76 277.24 78.72C277.16 78.68 277.06 78.66 276.94 78.66C276.86 78.62 276.78 78.58 276.7 78.54C276.62 78.46 276.54 78.4 276.46 78.36C276.3 78.36 276.12 78.4 275.92 78.48C275.76 78.52 275.6 78.52 275.44 78.48C275.04 78.48 274.78 78.44 274.66 78.36C274.54 78.28 274.32 78.28 274 78.36C273.96 78.36 273.84 78.38 273.64 78.42C273.44 78.46 273.3 78.48 273.22 78.48C271.82 78.84 270.6 79.44 269.56 80.28C268.56 81.12 267.66 82.06 266.86 83.1C266.1 84.1 265.36 85.08 264.64 86.04C264.48 86.36 264.32 86.68 264.16 87C264 87.32 263.84 87.58 263.68 87.78C263.64 87.82 263.6 87.8 263.56 87.72C263.52 87.64 263.48 87.64 263.44 87.72C263.32 87.84 263.24 88.04 263.2 88.32C263.16 88.6 263.08 88.82 262.96 88.98C262.92 89.02 262.86 89 262.78 88.92C262.74 88.8 262.7 88.78 262.66 88.86C262.62 88.94 262.58 89.1 262.54 89.34C262.5 89.58 262.44 89.74 262.36 89.82C261.92 90.5 261.42 91.14 260.86 91.74C260.34 92.34 259.84 93.06 259.36 93.9C258.6 95.14 257.72 96.64 256.72 98.4C255.72 100.12 254.86 101.7 254.14 103.14C253.86 103.66 253.66 104.12 253.54 104.52C253.42 104.88 253.3 105.22 253.18 105.54C253.1 105.78 253.06 105.92 253.06 105.96C253.06 106.28 253.24 106.44 253.6 106.44C253.72 106.44 253.84 106.42 253.96 106.38C254.08 106.3 254.2 106.24 254.32 106.2C254.44 106.12 254.58 106.06 254.74 106.02C254.9 105.98 255.04 105.92 255.16 105.84C255.2 105.8 255.44 105.66 255.88 105.42C256.32 105.14 256.74 104.8 257.14 104.4C257.22 104.36 257.32 104.28 257.44 104.16C257.56 104.04 257.64 103.96 257.68 103.92L258.34 103.38C258.42 103.26 258.52 103.2 258.64 103.2C258.8 103.2 258.92 103.28 259 103.44C259.08 103.6 259.06 103.76 258.94 103.92C258.9 104 258.78 104.1 258.58 104.22C258.38 104.3 258.18 104.44 257.98 104.64C257.66 104.92 257.28 105.22 256.84 105.54C256.44 105.86 256.06 106.14 255.7 106.38C255.54 106.46 255.36 106.58 255.16 106.74C254.96 106.86 254.82 107 254.74 107.16L254.2 108C254.2 108.08 254.16 108.12 254.08 108.12C254.04 108.08 253.92 108.14 253.72 108.3C253.68 108.34 253.66 108.42 253.66 108.54C253.66 108.66 253.62 108.76 253.54 108.84C253.5 108.96 253.44 109.06 253.36 109.14C253.28 109.18 253.24 109.22 253.24 109.26C253.24 109.38 253.18 109.46 253.06 109.5C252.94 109.54 252.84 109.6 252.76 109.68C252.72 109.72 252.72 109.78 252.76 109.86C252.8 109.94 252.8 110.02 252.76 110.1L252.22 111.36C252.18 111.44 252.12 111.52 252.04 111.6C252 111.68 251.94 111.74 251.86 111.78C251.82 111.82 251.76 111.8 251.68 111.72C251.6 111.68 251.54 111.7 251.5 111.78C251.5 111.86 251.52 111.98 251.56 112.14C251.64 112.3 251.62 112.42 251.5 112.5C251.38 112.58 251.28 112.74 251.2 112.98C251.12 113.26 251.04 113.46 250.96 113.58C250.84 113.74 250.7 113.84 250.54 113.88C250.42 113.92 250.3 114.04 250.18 114.24C250.14 114.28 250 114.44 249.76 114.72C249.56 115.04 249.4 115.06 249.28 114.78ZM243.34 109.5C243.46 109.5 243.64 109.46 243.88 109.38C245 108.78 245.98 108.16 246.82 107.52C246.82 107.48 246.94 107.42 247.18 107.34C247.42 107.26 247.52 107.2 247.48 107.16L247.78 107.1C247.78 107.1 247.84 107.12 247.96 107.16C248.08 107.2 248.1 107.14 248.02 106.98C248.22 106.78 248.26 106.66 248.14 106.62C248.02 106.58 247.98 106.56 248.02 106.56C248.14 106.36 248.24 106.26 248.32 106.26C248.4 106.26 248.52 106.18 248.68 106.02C248.8 105.94 248.92 105.86 249.04 105.78C249.16 105.66 249.26 105.56 249.34 105.48C249.34 105.44 249.34 105.42 249.34 105.42C249.38 105.38 249.4 105.34 249.4 105.3C249.4 105.3 249.46 105.3 249.58 105.3C249.74 105.26 249.84 105.18 249.88 105.06C250.24 104.98 250.3 104.94 250.06 104.94C249.82 104.9 249.7 104.86 249.7 104.82C249.7 104.82 249.78 104.76 249.94 104.64C250.1 104.52 250.14 104.44 250.06 104.4V104.34L250.24 104.1L250.48 104.04L250.54 103.86C250.54 103.74 250.68 103.62 250.96 103.5C251.28 103.34 251.46 103.2 251.5 103.08C252.1 102.28 252.6 101.58 253 100.98C253.44 100.34 253.74 99.82 253.9 99.42C253.98 99.26 254.06 99.12 254.14 99C254.22 98.88 254.3 98.76 254.38 98.64C254.46 98.32 254.54 98.02 254.62 97.74C254.7 97.42 254.8 97.08 254.92 96.72C254.76 96.68 254.5 96.66 254.14 96.66C253.54 96.66 252.84 96.78 252.04 97.02C251.28 97.26 250.44 97.72 249.52 98.4C249.36 98.52 249.16 98.7 248.92 98.94C248.72 99.18 248.54 99.28 248.38 99.24H248.26C248.14 99.24 248.08 99.32 248.08 99.48C248.12 99.6 248.06 99.74 247.9 99.9C247.82 99.98 247.72 100.06 247.6 100.14C247.48 100.18 247.34 100.28 247.18 100.44C247.1 100.52 247.04 100.62 247 100.74C246.96 100.82 246.88 100.92 246.76 101.04C246.6 101.24 246.4 101.46 246.16 101.7C245.96 101.9 245.78 102.08 245.62 102.24C245.46 102.4 245.26 102.6 245.02 102.84C244.82 103.08 244.66 103.32 244.54 103.56C244.5 103.6 244.44 103.56 244.36 103.44C244.28 103.32 244.22 103.28 244.18 103.32V103.38C244.18 103.46 244.22 103.58 244.3 103.74C244.38 103.86 244.38 103.96 244.3 104.04C244.26 104.12 244.18 104.28 244.06 104.52C243.98 104.76 243.9 104.94 243.82 105.06C243.5 105.7 243.22 106.34 242.98 106.98C242.78 107.62 242.68 108.16 242.68 108.6C242.68 109.2 242.9 109.5 243.34 109.5ZM262.474 111.12C261.474 111.12 260.594 110.84 259.834 110.28C259.074 109.72 258.694 108.76 258.694 107.4C258.694 106.88 258.754 106.36 258.874 105.84C258.994 105.28 259.134 104.74 259.294 104.22C259.374 103.7 259.494 103.24 259.654 102.84C259.694 102.68 259.714 102.6 259.714 102.6C259.754 102.56 259.854 102.5 260.014 102.42L260.494 101.7V101.46C260.454 101.46 260.434 101.46 260.434 101.46C260.434 101.42 260.434 101.4 260.434 101.4C260.434 101.28 260.534 101.14 260.734 100.98C260.934 100.82 261.034 100.74 261.034 100.74C261.074 100.54 261.134 100.44 261.214 100.44C261.294 100.44 261.394 100.38 261.514 100.26H262.174V100.14C262.174 99.94 262.074 99.86 261.874 99.9C261.714 99.9 261.634 99.88 261.634 99.84C261.634 99.8 261.694 99.72 261.814 99.6C261.974 99.44 262.074 99.34 262.114 99.3C262.234 99.14 262.334 99 262.414 98.88C262.494 98.72 262.614 98.6 262.774 98.52C263.494 97.64 263.934 97.08 264.094 96.84C264.294 96.6 264.494 96.42 264.694 96.3C264.774 96.3 264.834 96.34 264.874 96.42C264.954 96.46 264.954 96.52 264.874 96.6C264.954 96.72 265.014 96.74 265.054 96.66C265.134 96.58 265.174 96.54 265.174 96.54L265.414 96.42C265.334 96.34 265.294 96.24 265.294 96.12C265.294 95.92 265.334 95.76 265.414 95.64C265.494 95.48 265.634 95.32 265.834 95.16C266.074 95 266.194 94.9 266.194 94.86C266.434 94.78 266.614 94.7 266.734 94.62C266.894 94.54 267.054 94.5 267.214 94.5C267.494 94.5 267.774 94.6 268.054 94.8C268.814 95.2 269.454 95.6 269.974 96C270.494 96.4 270.754 96.96 270.754 97.68C270.754 98.44 270.434 99.1 269.794 99.66C269.194 100.18 268.454 100.62 267.574 100.98C266.694 101.34 265.814 101.64 264.934 101.88C264.094 102.08 263.434 102.24 262.954 102.36C262.674 102.4 262.534 102.52 262.534 102.72C262.574 102.88 262.554 103.06 262.474 103.26L262.054 103.92L261.694 104.76L261.394 105.3C261.114 105.54 261.014 105.72 261.094 105.84C261.174 105.96 261.314 105.94 261.514 105.78C261.554 105.82 261.574 105.88 261.574 105.96C261.574 106.12 261.534 106.32 261.454 106.56C261.374 106.76 261.314 106.92 261.274 107.04C261.234 107.2 261.234 107.28 261.274 107.28C261.354 107.24 261.394 107.32 261.394 107.52L261.454 108.36C261.694 109.12 262.234 109.56 263.074 109.68C263.154 109.68 263.234 109.7 263.314 109.74C263.434 109.74 263.534 109.74 263.614 109.74C264.334 109.74 264.714 109.68 264.754 109.56C264.834 109.44 264.934 109.36 265.054 109.32C265.414 109.24 265.714 109.16 265.954 109.08C266.234 109 266.514 108.88 266.794 108.72C267.274 108.52 267.734 108.26 268.174 107.94C268.614 107.62 269.074 107.3 269.554 106.98L270.154 106.56C270.194 106.48 270.194 106.42 270.154 106.38C270.114 106.34 270.114 106.3 270.154 106.26C270.234 106.22 270.294 106.22 270.334 106.26C270.414 106.26 270.474 106.24 270.514 106.2C270.594 106.16 270.674 106.1 270.754 106.02C270.834 105.9 270.914 105.8 270.994 105.72C271.074 105.64 271.114 105.56 271.114 105.48C271.154 105.4 271.214 105.32 271.294 105.24C271.614 104.92 271.934 104.58 272.254 104.22C272.614 103.86 272.914 103.54 273.154 103.26C273.434 102.86 273.654 102.66 273.814 102.66C273.894 102.66 273.934 102.7 273.934 102.78C273.934 102.98 273.794 103.28 273.514 103.68C272.834 104.68 272.054 105.66 271.174 106.62C270.294 107.54 269.334 108.38 268.294 109.14C267.534 109.66 266.634 110.12 265.594 110.52C264.554 110.92 263.514 111.12 262.474 111.12ZM263.374 101.46C263.974 101.42 264.754 101.26 265.714 100.98C266.674 100.66 267.474 100.24 268.114 99.72C268.794 99.16 269.134 98.54 269.134 97.86C269.134 97.22 268.794 96.6 268.114 96C267.554 96.4 266.934 96.98 266.254 97.74C265.614 98.46 265.034 99.18 264.514 99.9C263.994 100.58 263.614 101.1 263.374 101.46Z" fill="#AD7145" fill-opacity="0.98"/>
</svg>
