<svg width="400" height="400" viewBox="0 0 400 400" fill="none" xmlns="http://www.w3.org/2000/svg">
<g clip-path="url(#clip0_144_19)">
<path d="M295.979 229.845C295.2 229.471 266.039 215.112 260.857 213.247C258.742 212.487 256.475 211.745 254.065 211.745C250.127 211.745 246.82 213.708 244.243 217.562C241.33 221.892 232.512 232.2 229.787 235.279C229.431 235.686 228.946 236.171 228.655 236.171C228.394 236.171 223.881 234.313 222.514 233.719C191.233 220.131 167.488 187.455 164.233 181.944C163.768 181.152 163.748 180.792 163.744 180.792C163.858 180.373 164.91 179.318 165.453 178.774C167.042 177.203 168.762 175.131 170.427 173.127C171.216 172.178 172.005 171.227 172.781 170.331C175.196 167.521 176.271 165.339 177.518 162.812L178.171 161.499C181.216 155.451 178.616 150.347 177.775 148.699C177.086 147.319 164.773 117.603 163.464 114.481C160.316 106.947 156.156 103.439 150.375 103.439C149.839 103.439 150.375 103.439 148.126 103.534C145.387 103.649 130.471 105.613 123.877 109.77C116.883 114.179 105.052 128.234 105.052 152.951C105.052 175.196 119.169 196.2 125.23 204.188C125.381 204.39 125.657 204.799 126.058 205.386C149.27 239.284 178.207 264.406 207.54 276.125C235.781 287.405 249.153 288.709 256.756 288.709H256.757C259.952 288.709 262.509 288.458 264.765 288.236L266.196 288.1C275.952 287.235 297.391 276.126 302.268 262.574C306.109 251.9 307.122 240.238 304.566 236.005C302.816 233.127 299.799 231.679 295.979 229.845Z" fill="#0F100F" stroke="#0F100F" stroke-width="2.5974"/>
<path d="M203.55 0C95.2179 0 7.08282 87.4727 7.08282 194.991C7.08282 229.766 16.3893 263.806 34.0192 293.599L0.275023 393.138C-0.353548 394.993 0.113984 397.045 1.48671 398.443C2.47762 399.455 3.82178 400 5.1945 400C5.72048 400 6.25035 399.921 6.76723 399.756L110.559 366.774C138.962 381.949 171.063 389.96 203.552 389.96C311.874 389.961 400 302.497 400 194.991C400 87.4727 311.874 0 203.55 0ZM203.55 349.343C172.98 349.343 143.371 340.516 117.919 323.814C117.063 323.252 116.07 322.964 115.07 322.964C114.541 322.964 114.011 323.044 113.496 323.208L61.5023 339.735L78.2867 290.217C78.8296 288.614 78.5581 286.847 77.5581 285.481C58.1763 258.997 47.9309 227.708 47.9309 194.991C47.9309 109.87 117.741 40.6182 203.549 40.6182C289.346 40.6182 359.149 109.87 359.149 194.991C359.15 280.101 289.349 349.343 203.55 349.343Z" fill="#0F100F" stroke="#0F100F" stroke-width="2.5974"/>
</g>
<defs>
<clipPath id="clip0_144_19">
<rect width="400" height="400" fill="white"/>
</clipPath>
</defs>
</svg>
